<?xml version="1.0" standalone="no"?>
<!DOCTYPE svg PUBLIC "-//W3C//DTD SVG 1.1//EN" "http://www.w3.org/Graphics/SVG/1.1/DTD/svg11.dtd" >
<svg xmlns="http://www.w3.org/2000/svg">
<metadata></metadata>
<defs>
<font id="formatabold" horiz-adv-x="1193" >
<font-face units-per-em="2048" ascent="1522" descent="-526" />
<missing-glyph horiz-adv-x="598" />
<glyph horiz-adv-x="2048" />
<glyph horiz-adv-x="2048" />
<glyph unicode="&#xd;" horiz-adv-x="598" />
<glyph unicode=" "  horiz-adv-x="598" />
<glyph unicode="&#x09;" horiz-adv-x="598" />
<glyph unicode="&#xa0;" horiz-adv-x="598" />
<glyph unicode="!" horiz-adv-x="641" d="M152 1534l12 16l407 21l19 -10q-10 -90 -18.5 -217t-15.5 -266.5t-12 -279t-7 -255.5l-15 -19l-299 -6l-10 14q-6 143 -11 249t-9.5 187t-7.5 145.5t-8 128t-11 133t-14 159.5zM162 8v328l14 12q41 0 80 -1t80 -1h39l184 6l10 -6l-4 -340l-10 -8l-383 -4z" />
<glyph unicode="&#x22;" horiz-adv-x="811" d="M45 1397q0 37 14.5 62.5t37 42t50 24.5t54.5 8q57 0 97 -34t40 -93q0 -10 -1 -18.5t-1 -16.5l-109 -536h-65l-111 512l-4 24t-2 25zM473 1399q0 59 44 97t110 38q55 0 96 -34t41 -93v-18.5t-2 -16.5l-109 -536h-63l-113 512q-2 12 -3 24t-1 27z" />
<glyph unicode="#" horiz-adv-x="1366" d="M86 381v252h229l27 196h-205v254h240l51 361h256l-53 -361h205l49 361h256l-49 -361h186v-254h-223l-25 -196h201v-252h-238l-53 -383h-256l53 383h-202l-54 -383h-254l52 383h-193zM569 633h203l29 196h-205z" />
<glyph unicode="$" horiz-adv-x="1150" d="M100 82l6 293l25 10q41 -31 70.5 -51.5t57.5 -33.5t57.5 -23.5t70.5 -20.5l74 297l-78 51q-49 33 -100.5 70t-91 85t-65.5 112.5t-26 150.5q0 88 35 163t84 122q45 43 131 78.5t213 35.5q27 0 52.5 -1t52.5 -3l18 109l16 14l160 -2l12 -12l-30 -129q31 -6 52.5 -12.5 t40.5 -12.5t39.5 -15t49.5 -22l8 -12l-26 -268l-25 -6q-33 18 -55.5 31.5t-44 22.5t-45 18t-58.5 20l-75 -287l75 -53q49 -31 104.5 -71t102.5 -91t78 -117.5t31 -150.5q0 -14 -5.5 -57.5t-31 -96.5t-81.5 -108.5t-157 -94.5q-94 -35 -172 -40t-153 -5l-27 -123l-16 -12 l-160 -2l-10 14l36 140q-37 8 -61.5 15t-46 16.5t-45 20.5t-55.5 30zM469 1067q0 -35 30.5 -64.5t55.5 -48.5l57 201q-23 2 -42 2t-38 -8q-23 -10 -43 -31.5t-20 -50.5zM555 242q23 -2 44.5 -1t43.5 11q16 6 39 25.5t23 54.5q0 47 -31 74.5t-60 44.5z" />
<glyph unicode="%" horiz-adv-x="1878" d="M61 930q0 76 8.5 161t42 154.5t102.5 115.5t189 46q119 0 189 -43t104.5 -111.5t44 -152.5t9.5 -166q0 -80 -9.5 -164t-44 -152.5t-104.5 -111.5t-189 -43t-186 44t-102 111.5t-44.5 150.5t-9.5 161zM322 893q0 -27 1 -56.5t4 -61.5t7 -56q8 -35 23.5 -58.5t45.5 -23.5 q20 0 34 9t22 22.5t11 28t5 22.5q10 47 12 108.5t2 108.5q0 41 -2 103.5t-12 109.5q-2 8 -5 22.5t-11 27.5t-21.5 23.5t-34.5 10.5q-25 0 -37 -13.5t-16 -21.5q-10 -18 -16 -53t-9 -73t-3 -74.5v-61.5v-43zM535 18q6 14 22 52.5t38.5 88.5t47.5 106.5t47.5 107.5t40 92 t25.5 57l209 486q31 72 50 117.5t34.5 82.5t30 73t34.5 91l14 14h64h48.5h44h50.5l8 -18q-156 -336 -301 -669.5t-274 -678.5l-12 -14q-49 -2 -91 -3t-116 -3zM1128 449q0 76 8.5 159.5t42 153t102.5 116t189 46.5q119 0 189 -43t104.5 -111t44 -151.5t9.5 -165.5t-9.5 -166 t-44 -152.5t-104.5 -111.5t-189 -43t-186 44t-102 111.5t-44.5 150.5t-9.5 163zM1389 412q0 -27 1 -57.5t4 -61.5t7 -55q8 -35 23.5 -59.5t45.5 -24.5q20 0 34 9t22 23.5t11 27.5t5 24q10 47 12 108.5t2 108.5q0 41 -2 103.5t-12 109.5q-2 8 -5 21t-11 26.5t-21.5 24 t-34.5 10.5q-25 0 -37 -13.5t-16 -21.5q-10 -18 -16 -52t-9 -72t-3 -75v-61v-43z" />
<glyph unicode="&#x26;" horiz-adv-x="1449" d="M31 375q0 84 31.5 150.5t78.5 118.5t101.5 90t101.5 67q-23 29 -43 59.5t-37.5 66.5t-28 79t-10.5 96q0 106 40 178t103.5 116t141.5 62.5t156 18.5q20 0 56 -3.5t79 -12.5t86 -27.5t76 -49.5q57 -53 80.5 -117.5t23.5 -127.5q0 -49 -12.5 -93.5t-40 -86t-73.5 -85 t-114 -92.5l172 -221q55 68 105.5 152t91.5 207l16 2l203 -246l4 -23q-25 -43 -43 -72.5t-41.5 -62.5t-57.5 -77t-89 -113q45 -59 76.5 -98.5t59.5 -71t57.5 -64.5t70.5 -78l-10 -18q-49 2 -98.5 2h-98.5q-63 -2 -126.5 -3t-127.5 -5l-16 10l-68 84q-80 -51 -176 -85 t-219 -34q-90 0 -176 25.5t-153.5 77t-109.5 127t-42 178.5zM451 418q0 -53 36.5 -92t108.5 -39q41 0 69.5 10t61.5 27l-182 227q-27 -20 -60.5 -52t-33.5 -81zM580 1151q0 -31 19 -64t58 -86q29 23 63 57t34 87q0 35 -12.5 54.5t-28 28.5t-28.5 11t-17 2q-41 0 -64.5 -28.5 t-23.5 -61.5z" />
<glyph unicode="'" horiz-adv-x="425" d="M68 1399q0 68 49 101.5t106 33.5q31 0 52.5 -8t35 -19.5t21.5 -20.5t10 -11q14 -23 15 -49.5t-1 -53.5l-108 -536h-66l-110 512q-2 12 -3 24t-1 27z" />
<glyph unicode="(" horiz-adv-x="681" d="M109 563q0 172 39.5 335t105.5 321q10 25 25.5 60.5t37 80.5t47 94t54.5 100l16 13h211l17 -21q-57 -158 -94.5 -303t-59 -273t-29.5 -232.5t-8 -178.5q0 -145 19.5 -285.5t49 -266.5t62.5 -234.5t60 -190.5l-17 -18h-211l-16 12q-41 70 -75 136.5t-75 164.5 q-70 166 -114.5 337t-44.5 349z" />
<glyph unicode=")" horiz-adv-x="681" d="M20 -416q23 66 44.5 129.5t37.5 128.5q18 63 38 149.5t35 182.5t25.5 197.5t10.5 199.5q0 147 -20.5 288.5t-49 267.5t-61.5 233.5t-60 185.5l17 21h211l16 -13q68 -119 124 -242.5t98 -249.5t64.5 -252t22.5 -245q0 -186 -46 -355t-107 -321q-47 -109 -84 -179t-72 -134 l-16 -12h-211z" />
<glyph unicode="*" horiz-adv-x="980" d="M72 1257q23 35 38 58.5t26 44t23.5 43t28.5 55.5l17 2q43 -33 70.5 -53.5t47 -34.5t38 -26.5t42.5 -30.5l-43 239l11 11l233 2l10 -8l-41 -246q33 31 55.5 50t43 36.5t43 34t55.5 39.5l14 -5q18 -35 31.5 -58.5t26 -43.5t27 -43t36.5 -55l-2 -15l-239 -102l241 -80l4 -12 q-20 -37 -32.5 -60.5t-23.5 -44t-23.5 -44t-30.5 -60.5l-13 -4l-215 151l56 -241l-11 -11l-241 -6l-6 9l26 251q-29 -29 -48 -47t-37.5 -34.5t-41 -34t-57.5 -43.5l-12 2l-123 202l4 15l225 92l-227 92z" />
<glyph unicode="+" horiz-adv-x="1366" d="M86 467v260h469v465h260v-465h465v-260h-465v-467h-260v467h-469z" />
<glyph unicode="," horiz-adv-x="555" d="M2 -188q25 86 41 145t29.5 113.5t26 115t28.5 150.5l10 12q74 0 123 1t91 3t86 4t106 6l8 -14q-12 -29 -27.5 -62.5t-32 -70.5t-32 -71.5t-27.5 -63.5q-6 -14 -21.5 -51t-33 -79t-33.5 -81t-22 -53l-15 -11l-297 -8z" />
<glyph unicode="-" horiz-adv-x="811" d="M70 436l12 287l12 14h639l8 -10l-14 -287l-12 -14h-637z" />
<glyph unicode="." horiz-adv-x="555" d="M70 336l8 12l395 4l8 -8v-334l-8 -8l-387 -8l-8 12z" />
<glyph unicode="/" horiz-adv-x="1067" d="M-33 -289q45 102 78 178t59.5 137.5t49 115t48 110.5t55.5 124.5t69 160.5q59 139 103 242.5t78 184t61.5 147.5t53 132.5t53 139t64.5 167.5l13 15h274l8 -19q-14 -31 -24.5 -51t-19.5 -44t-21.5 -53.5t-32.5 -78.5q-72 -168 -142.5 -334t-142.5 -332 q-102 -236 -197.5 -469t-187.5 -471l-12 -12l-274 -8z" />
<glyph unicode="0" d="M70 692q0 160 16 263.5t40 168t48.5 98t42.5 52.5q23 25 55.5 50.5t78.5 46t105.5 32.5t137.5 12q168 0 272.5 -55t161.5 -151.5t77.5 -229.5t20.5 -287q0 -135 -12 -231t-31.5 -163t-46 -110t-55.5 -75q-72 -78 -171 -111t-208 -33q-166 0 -269.5 53.5t-161.5 148.5 t-79.5 228t-21.5 293zM469 690q0 -104 6 -205q2 -41 6 -80.5t17 -80.5q12 -35 37.5 -61.5t62.5 -26.5q35 0 59.5 23.5t34.5 57.5q14 39 21.5 90.5t10.5 103.5t3 100v83q0 39 -1 92.5t-5 106.5t-11.5 103.5t-21.5 82.5q-23 51 -50.5 60.5t-41.5 9.5q-43 0 -62.5 -24.5 t-25.5 -41.5q-14 -29 -21.5 -81t-11.5 -109t-5 -111.5t-1 -91.5z" />
<glyph unicode="1" d="M221 1092l17 245l14 13l563 73l14 -12q-2 -156 -3 -267.5t-1 -192.5t-1 -136t-1 -94v-68.5v-62.5q0 -109 1 -190t3 -147.5t4.5 -122.5t6.5 -114l-17 -14h-108t-89 -1t-93.5 -3t-120.5 -4l-11 14q2 117 5.5 209t4.5 171t2 152.5t1 154.5v176.5v218.5l-179 -11z" />
<glyph unicode="2" d="M18 23q100 125 196.5 249.5t193.5 253.5q53 74 90 125t59.5 91t31.5 74t9 71q0 25 -8 59.5t-33 66t-66.5 54.5t-109.5 23q-102 0 -168 -35t-129 -84l-18 14l4 318l12 14q96 37 196.5 68.5t231.5 31.5t229.5 -37t164 -99t98 -147t32.5 -180q0 -37 -5 -80t-23.5 -93 t-52 -109.5t-89.5 -128.5q-37 -45 -88 -107.5t-88 -107.5l383 12l12 -14q-4 -51 -6 -85t-4 -66t-3 -66.5t-1 -85.5l-14 -23q-72 0 -132.5 1t-125.5 1q-80 0 -180.5 -1t-205 -2t-206 -3t-180.5 -2z" />
<glyph unicode="3" d="M84 1077l16 289l15 20q98 -2 194.5 -3t194.5 -1q131 0 250.5 3.5t265.5 7.5l14 -23q-45 -88 -73.5 -145.5t-53 -108.5t-50.5 -105.5t-64 -136.5q33 -4 65.5 -13t71.5 -32q66 -41 115 -126t49 -214q0 -104 -39 -202.5t-115 -171.5q-90 -86 -208 -116t-240 -30 q-139 0 -238.5 27t-147.5 43l-6 14l4 305l19 11q51 -35 116.5 -71t161.5 -36q113 0 175.5 57.5t62.5 149.5q0 45 -17.5 80t-45 59.5t-64.5 37.5t-76 13t-61.5 -8t-46.5 -20l-15 12q29 66 51.5 118t42 101t40 100.5t45.5 112.5l-394 -12z" />
<glyph unicode="4" d="M63 272v217q27 53 60 120t66.5 136.5t65.5 136t56 119.5q12 27 24.5 52.5t29 64.5t43 100.5t69.5 159.5l19 15l479 6l16 -15q-2 -84 -3 -149.5t-2 -123.5t-2 -114.5t-1 -123t1 -147.5t1 -187l145 6l15 -13l-15 -262l-16 -14h-129l10 -246l-18 -14q-63 0 -105.5 1t-81 0 t-82.5 -3t-112 -4l-12 12l12 254h-522zM395 539h211l12 571q-23 -55 -37 -92t-27 -71t-28.5 -73.5t-36.5 -99.5z" />
<glyph unicode="5" d="M104 51q2 49 4.5 84t3.5 66.5t1 66.5v84l20 10q63 -39 132 -70.5t167 -31.5q59 0 101 16.5t69 42t39 60.5t12 72q0 80 -60.5 134t-178.5 54q-94 0 -154.5 -20.5t-103.5 -40.5l-19 10q4 61 8.5 121.5t8.5 121.5q8 106 13 172t9 119.5t6 108.5t4 141l15 14q74 0 147.5 -1 t147.5 -1q129 0 249.5 2.5t262.5 6.5l10 -17l-25 -291l-14 -14l-463 10l-16 -155q35 4 65.5 8t65.5 4q119 0 208 -36t147 -97.5t88 -143t30 -176.5q0 -70 -24.5 -158.5t-89 -168.5t-180.5 -134.5t-296 -54.5q-74 0 -131 5.5t-103.5 14.5t-85 20t-77.5 24z" />
<glyph unicode="6" d="M66 643q0 113 15 204t39.5 162.5t55.5 125t62 88.5q82 96 199.5 145t305.5 49q49 0 87 -3t71 -9t63.5 -15.5t67.5 -21.5l12 -16l-16 -289l-22 -10q-27 20 -85.5 50t-154.5 30q-61 0 -113.5 -16.5t-87.5 -45.5q-55 -45 -70.5 -97t-21.5 -106q37 23 94.5 47.5t149.5 24.5 q113 0 193.5 -42t131 -108.5t74 -148.5t23.5 -160q0 -141 -44 -239.5t-117 -158.5t-166 -87t-189 -27q-160 0 -267.5 53.5t-172 144.5t-91 214t-26.5 262zM465 553q0 -102 6 -157.5t27 -90.5q2 -4 10 -15t22.5 -23.5t36 -23t49.5 -10.5q49 0 78 21.5t44.5 52.5t19.5 63.5 t4 55.5q0 37 -8.5 73t-26.5 64.5t-47 46t-70 17.5q-57 0 -91 -25.5t-54 -48.5z" />
<glyph unicode="7" d="M88 1075l27 295l14 16h224.5t210 2.5t239.5 4.5t315 6l12 -23q-27 -84 -53 -167t-53 -167q-41 -129 -81 -259t-81 -259q-27 -86 -52.5 -168t-47.5 -168q-10 -43 -20.5 -86t-20.5 -86l-16 -16q-72 0 -122.5 1t-98.5 0t-100 -3t-128 -4l-16 16q16 47 28.5 82t24.5 70 t28.5 78t40.5 108q29 76 50.5 133.5t40 105.5t37 94t39 100.5t48 124t64.5 165.5l-541 -8z" />
<glyph unicode="8" d="M57 410q0 59 21.5 127.5t68.5 124.5q35 39 66 56t66 32q-39 20 -64 35.5t-49 43.5q-39 45 -55.5 97.5t-16.5 105.5q0 27 7.5 69t31 90t65.5 93t111 78q37 16 77 26.5t80 16.5t77 9t65 3q160 0 257.5 -45t149.5 -106.5t69.5 -127t17.5 -108.5q0 -51 -15.5 -101t-50.5 -91 q-31 -39 -60 -56.5t-58 -31.5q45 -20 82.5 -45t76.5 -87q31 -49 45.5 -102t14.5 -106q0 -68 -26 -147t-83 -142q-82 -88 -197.5 -119t-236.5 -31q-86 0 -171 16.5t-163 59.5q-90 51 -146.5 151.5t-56.5 211.5zM487 403q0 -49 11.5 -80.5t29 -48t36 -22.5t32.5 -6 q25 0 44.5 10.5t31.5 24.5q27 29 31 70.5t4 66.5q0 59 -12.5 94t-29 53.5t-36 24.5t-31.5 6q-41 0 -63.5 -23.5t-32.5 -55.5t-12.5 -64.5t-2.5 -49.5zM489 1018q0 -43 6.5 -65.5t12.5 -34.5q10 -18 32.5 -38t55.5 -20h13t16 4q31 10 46 29.5t23 41t9.5 44t1.5 39.5 q0 23 -1.5 44t-11.5 44t-31.5 47.5t-62.5 24.5q-4 0 -21.5 -2t-37 -17.5t-35 -48.5t-15.5 -92z" />
<glyph unicode="9" d="M55 922q0 106 34 197t99.5 157.5t161.5 103.5t223 37q84 0 162 -19.5t139 -56.5q74 -45 123.5 -111.5t79 -146t40.5 -168t11 -176.5q0 -53 -6 -124.5t-24.5 -149.5t-52 -156t-89.5 -145q-35 -43 -80 -78t-105 -61.5t-140 -41t-187 -14.5q-47 0 -82.5 3t-68.5 9.5 t-63.5 15.5t-67.5 21l-12 17l16 289l20 10q14 -10 35 -24.5t50.5 -27t68.5 -20.5t88 -8q59 0 106.5 14.5t75.5 32.5q35 23 55.5 50.5t32 55t16.5 56.5t9 55q-29 -16 -55.5 -28.5t-55 -22.5t-60.5 -15.5t-73 -5.5q-109 0 -188.5 39t-132 104.5t-78 151.5t-25.5 181zM432 963 q0 -82 38 -143.5t110 -61.5q59 0 92.5 26.5t56.5 49.5q0 100 -5 153t-26 92q-16 27 -34.5 42.5t-37 22.5t-32.5 8t-19 1q-41 0 -68.5 -18.5t-44 -46t-23.5 -61.5t-7 -64z" />
<glyph unicode=":" horiz-adv-x="641" d="M156 336l6 12l397 4l8 -8v-334l-8 -8l-387 -8l-10 12zM158 743v330l8 12l399 7l4 -7v-337l-10 -9l-391 -6z" />
<glyph unicode=";" horiz-adv-x="641" d="M86 -188q20 63 35.5 118.5t30 113.5t29 128t32.5 164l10 12q74 0 123 1t91 3t85 4t105 6l8 -14q-6 -16 -11.5 -27.5t-10.5 -23.5t-12 -27.5t-17 -38.5q-29 -63 -50.5 -112t-41 -95.5t-39 -95.5t-45.5 -112l-17 -11l-295 -8zM215 741v330l8 12l395 9l9 -9l-4 -338l-11 -8 l-389 -6z" />
<glyph unicode="&#x3c;" horiz-adv-x="1366" d="M0 592v254l1366 606v-285l-1004 -448l1004 -443v-282z" />
<glyph unicode="=" horiz-adv-x="1366" d="M0 254v260h1366v-260h-1366zM0 680v260h1366v-260h-1366z" />
<glyph unicode="&#x3e;" horiz-adv-x="1366" d="M0 -6v282l1001 443l-1001 448v285l1366 -606v-254z" />
<glyph unicode="?" horiz-adv-x="937" d="M49 1210l8 285l15 16q41 14 81 27.5t81.5 23t89 15.5t104.5 6q72 0 145.5 -10t135.5 -39q104 -47 161.5 -143.5t57.5 -221.5q0 -92 -29 -163.5t-65 -135.5q-10 -16 -17.5 -28.5t-20 -28.5t-30.5 -40.5t-51 -63.5l-45 -60q-14 -18 -22.5 -32.5t-12.5 -26.5t-6 -26.5 t-4 -35.5l-11 -16l-360 -8l-10 14q2 70 24.5 111t69.5 94l49 61q20 27 43 58.5t41 68.5t30.5 79t12.5 91q0 53 -17.5 91t-47 63t-66.5 37t-76 12q-72 0 -130 -27.5t-111 -62.5zM225 8v328l15 12q41 0 79.5 -1t79.5 -1h39q47 2 92 3t91 3l10 -6l-4 -340l-9 -8l-382 -4z" />
<glyph unicode="@" horiz-adv-x="1835" d="M141 487q0 195 72 371t198 309t298 212t372 79q164 0 281 -53t190.5 -138t107.5 -190.5t34 -208.5q0 -147 -41 -280t-108.5 -233.5t-156 -160t-182.5 -59.5q-51 0 -92 19.5t-63 50.5q-14 18 -19.5 35.5t-9.5 38.5q-12 -16 -33.5 -40t-53.5 -46.5t-74 -39t-95 -16.5 q-23 0 -75 10.5t-105 55.5q-59 53 -82 128t-23 152q0 104 33 209t91.5 190t140 137t182.5 52q49 0 84 -12t59.5 -30.5t40.5 -40t29 -40.5l18 80h187l-68 -323q-23 -104 -34 -165t-16 -92.5t-6 -46t-1 -26.5q0 -14 5 -40t34 -26q33 0 77.5 43t85.5 117t70 173t29 214 q0 125 -43 210t-109.5 136t-148.5 72.5t-158 21.5q-147 0 -283.5 -64.5t-241 -175t-167 -257t-62.5 -310.5q0 -178 65.5 -290.5t161 -177t202 -89t190.5 -24.5q131 0 237.5 32.5t189.5 80t142 98.5t98 88l97 -125q-41 -39 -107.5 -96.5t-161 -110.5t-214 -91t-265.5 -38 q-80 0 -170 14.5t-179 49t-171 91t-144.5 138.5t-100.5 193.5t-38 254.5zM692 494q0 -66 19.5 -101t43 -51t44 -19.5t24.5 -3.5q49 0 94.5 36t80 92.5t55 127t20.5 142.5q0 45 -13 77.5t-33.5 54t-44.5 31t-48 9.5q-53 0 -97 -37t-77 -94.5t-50.5 -128t-17.5 -135.5z" />
<glyph unicode="A" horiz-adv-x="1409" d="M0 14l446 1422l13 10l520 6l14 -10l416 -1426l-14 -16h-211q-53 0 -105.5 -2t-105.5 -4l-15 10l-77 348h-400l-80 -344l-14 -8h-377zM557 647h254l-51 217l-68 310q-10 -41 -17 -73t-16.5 -67t-20.5 -77t-28 -103z" />
<glyph unicode="B" horiz-adv-x="1409" d="M102 1434l9 12l374 4l90 2q35 2 71 2h71q100 0 170.5 -6t121 -17.5t85 -30t63.5 -42.5q55 -47 83 -112.5t28 -137.5q0 -20 -5.5 -59t-27.5 -86q-39 -78 -92 -116t-94 -59q27 -6 57.5 -13t61 -20.5t60 -36t54.5 -56.5q41 -59 51 -113.5t10 -99.5q0 -16 -2 -44t-11 -65 t-27.5 -78t-53.5 -80q-55 -63 -123.5 -99t-151.5 -53.5t-181.5 -22.5t-208.5 -7h-463l-10 10q4 203 7 402.5t3 400.5q0 125 -1 211t-3 154.5t-6.5 127t-8.5 128.5zM541 268q28 -1 54 -1q39 0 72 2q56 3 101 24q53 25 76.5 65.5t23.5 85.5q0 43 -14 71t-32.5 43t-38 22.5 t-29.5 9.5q-12 2 -25.5 4t-35 3t-57.5 0t-95 -1v-328zM545 879h59.5t52.5 2q98 8 137.5 55t39.5 102q0 43 -14.5 69t-24.5 36q-35 37 -97 42q-44 4 -103 4q-24 0 -50 -1v-309z" />
<glyph unicode="C" horiz-adv-x="1236" d="M66 705q0 190 54 334.5t150.5 241.5t231.5 146.5t299 49.5q135 0 220 -26t148 -50l9 -15q-4 -53 -7.5 -92t-5.5 -74.5t-3 -75.5t-3 -95l-14 -9q-16 12 -38 29.5t-53.5 33t-73.5 27t-97 11.5q-61 0 -124 -20.5t-114 -70t-84 -129t-33 -198.5q0 -125 35 -206t89.5 -128 t121 -65.5t127.5 -18.5q55 0 98 10.5t77 24.5t57.5 29.5t40.5 27.5l16 -8l-14 -346l-11 -12q-41 -12 -81 -23.5t-81.5 -19.5t-89 -13.5t-104.5 -5.5q-186 0 -303 42t-195 104q-74 59 -122 133t-75.5 152.5t-37.5 156.5t-10 148z" />
<glyph unicode="D" horiz-adv-x="1449" d="M106 1436l13 10h569q57 0 131 -4t152 -24.5t151.5 -61.5t132 -117t94 -192.5t35.5 -284.5q0 -39 -5 -99.5t-18 -129t-40 -140t-70 -133.5q-66 -92 -147.5 -144.5t-167.5 -78t-169 -31.5t-149 -6h-40.5t-76.5 -1t-140.5 -2t-231.5 -3l-12 16q2 74 3 130.5t1 104.5v95v102 q0 250 -2 497t-13 497zM557 322q14 0 28.5 -1.5t35.5 -1.5q35 0 88 9.5t100 50.5q14 12 34.5 35.5t39 65.5t31 105.5t12.5 153.5q0 25 -2 73t-12.5 100.5t-33 101.5t-65.5 78q-37 27 -81 34t-91 7q-23 0 -42 -1.5t-42 -3.5v-806z" />
<glyph unicode="E" horiz-adv-x="1150" d="M104 1434l13 12h921l11 -8l-15 -283l-12 -10h-473v-260l448 8l13 -14l-17 -269l-14 -12h-426v-283q119 0 240.5 3.5t279.5 9.5l12 -13l-20 -303l-18 -12h-170t-107 1t-65.5 1h-47.5q-84 0 -151.5 -1t-129 -2t-121.5 -2t-134 -3l-10 14q2 88 4 160t3 144.5t1 152.5v184 q0 184 -1 300t-2 198t-4 145.5t-8 141.5z" />
<glyph unicode="F" horiz-adv-x="1067" d="M104 1440l13 8h294.5h215t187.5 2t214 4l14 -10l-16 -283l-14 -14h-467l2 -289l442 12l10 -10q-4 -45 -7 -77.5t-5 -63.5t-3 -62.5t-3 -76.5l-14 -15h-422l12 -553l-14 -12q-68 0 -116 1q-24 0 -47 0.5t-45 -0.5q-44 -1 -92 -3t-118 -4l-14 12q2 113 3 223.5t3 223.5 q0 82 1 163.5t1 165.5q0 164 -4 319.5t-11 338.5z" />
<glyph unicode="G" horiz-adv-x="1449" d="M66 707q0 129 35.5 266t124.5 248.5t239.5 183.5t378.5 72q78 0 141.5 -8.5t115.5 -21.5t95 -29.5t78 -31.5l6 -14l-25 -340l-18 -6q-33 20 -67.5 43t-74.5 39t-88.5 27.5t-105.5 11.5q-76 0 -139.5 -21.5t-104.5 -56.5q-80 -66 -108.5 -163t-28.5 -199q0 -29 2 -67 t11.5 -79t28 -83t48.5 -77q6 -8 21.5 -23.5t42 -30.5t64.5 -26.5t91 -11.5q29 0 50.5 3t48.5 10v118.5t-1 87.5t-4 84t-10 105l11 12q72 0 120 -1h47h44q43 1 90 2t114 5l11 -10q-2 -51 -4.5 -93t-3.5 -80t-1 -76v-83q0 -82 1 -161.5t4 -161.5l-9 -17q-55 -16 -108 -31.5 t-112.5 -26.5t-127 -18.5t-147.5 -7.5q-182 0 -311.5 38t-215.5 108q-41 33 -85 85t-80.5 124.5t-60 167t-23.5 215.5z" />
<glyph unicode="H" horiz-adv-x="1536" d="M109 1434l8 12q41 -2 83 -2h85q68 0 132 2t138 6l8 -12v-514h412l-8 510l10 10l438 6l10 -8q-4 -199 -6 -394.5t-2 -394.5v-171.5t1 -151.5t3 -151t4 -169l-10 -12h-124t-99 -1t-96 -2t-117 -3l-8 12q0 45 1 102.5t2 117t2 116.5t1 104v82t-2 82q-43 2 -86 2h-86 q-59 0 -113.5 -1t-126.5 -5v-596l-8 -10l-434 -6l-10 10q2 211 4 356.5t3 240.5t1 148.5v77.5q0 152 -3 294.5t-7 312.5z" />
<glyph unicode="I" horiz-adv-x="681" d="M109 1436l10 10q76 0 126 -1q25 0 49 -0.5t47 0.5q46 1 96 2t126 5l8 -10q-2 -78 -4 -141.5t-3 -128t-2 -135t-1 -158.5q0 -217 4 -434.5t10 -434.5l-8 -10q-74 0 -124 1q-25 0 -49 0.5t-47 -0.5q-46 -1 -98 -3t-128 -4l-8 10q0 139 1 275.5t3 273.5q2 88 3 175t1 175 q0 68 -1 128.5t-2 123t-4 131t-5 150.5z" />
<glyph unicode="J" horiz-adv-x="768" d="M6 14q2 51 3 85t1 67q0 37 -1 72.5t-1 72.5l12 13q31 -6 62 -7q51 0 81 20.5t46 53.5t21.5 72t5.5 76q0 12 -1.5 73.5t-3.5 150.5t-4 192.5t-4 199.5t-3 172t-3 109l14 10h201q55 2 111.5 3t111.5 3l15 -8q-2 -80 -2 -153.5v-157.5q0 -121 1 -240t3 -238v-84v-99 t-1 -73.5t-3 -57.5t-6 -50q-12 -76 -44 -127t-74 -84t-90 -51.5t-93.5 -26.5t-84 -10t-59.5 -2q-51 0 -100 4t-99 8z" />
<glyph unicode="K" horiz-adv-x="1409" d="M96 1434l13 12q67 0 113 -1q23 0 46 -0.5t46 0.5q46 1 97.5 2t127.5 5l12 -10l-14 -633l254 451l98 178l14 8l451 6l12 -14q-92 -121 -150.5 -200t-102.5 -142.5t-83 -122t-88 -135.5l266 -490q45 -78 72 -124t46.5 -77.5t35.5 -57.5t41 -60l-6 -19l-471 -18l-19 8 q-25 53 -41 89t-31.5 68.5t-35 72.5t-49.5 104l-215 411q2 -78 4 -154.5t2 -154.5q2 -84 3 -135t2 -93t4 -85t7 -113l-12 -10q-66 0 -114 1q-24 0 -47 0.5t-45 -0.5q-44 -1 -94 -3t-120 -4l-14 12q2 84 4 155.5t3 139.5t2 137.5t1 153.5q0 178 -2 302t-5 218t-7.5 169 t-10.5 153z" />
<glyph unicode="L" horiz-adv-x="1110" d="M113 1438l12 10l440 4l15 -8q-2 -39 -4.5 -78t-4.5 -78q-2 -43 -3 -117.5t-2 -166t-2 -190.5t-1 -192.5t-1 -173t-1 -129.5q94 0 156.5 1.5t115 3.5t105.5 3t131 5l10 -13l-20 -307l-10 -12q-164 2 -277 2t-209 -1t-195.5 -3t-236.5 -4l-10 12q0 51 1 87t1 65.5v55.5v54 q0 131 -1 261t-3 262v238t-1 155.5t-2 120t-3 133.5z" />
<glyph unicode="M" horiz-adv-x="1921" d="M78 6q10 143 18 258t13.5 216.5t10.5 199.5t9 208.5t8 244t8 303.5l13 10h276q74 2 146.5 3t144.5 3l12 -6l228 -877q10 41 20 83t21 85q29 111 59.5 218.5t58.5 218.5q16 66 33 132t33 132l14 8l555 6l13 -12q2 -92 4 -165t5 -148.5t8 -166t11 -217.5q10 -184 19.5 -365 t19.5 -366l-12 -12h-109.5h-89.5t-90 -2t-113 -4l-10 12l-16 801v307l-76 -278l-33 -125l-186 -699l-17 -12q-51 0 -85 1q-17 0 -34.5 0.5t-34.5 -0.5q-34 -1 -72 -3t-93 -4l-14 12q-31 119 -51.5 201t-39 149.5t-36 135t-41.5 159.5l-33 121l-96 354l-8 -290 q-4 -131 -6.5 -261.5t-2.5 -261.5q0 -80 1 -149.5t3 -151.5l-14 -12l-342 -6z" />
<glyph unicode="N" horiz-adv-x="1492" d="M102 1434l13 12h182l178 6l12 -6q35 -51 59.5 -87t49.5 -70t52.5 -71.5t68.5 -93.5q43 -59 75.5 -103t66.5 -91t75 -104.5t100 -143.5v236.5t-1 171t-3 156.5t-6 190l8 10l334 6l12 -8v-102.5v-158.5t-1 -188.5t-1 -189.5v-162v-108v-133.5t1 -118t2 -123t3 -148.5 l-12 -12l-287 -6l-16 8q-41 57 -67.5 94t-49 69t-48 67.5t-66.5 91.5q-16 25 -42 59.5t-56.5 74.5t-63.5 84t-64 87q-74 98 -155 211l28 -828l-10 -12h-97h-76t-75 -2t-96 -4l-12 10q2 53 3 96t2 83t1 81v88q0 272 -4 540.5t-17 541.5z" />
<glyph unicode="O" horiz-adv-x="1492" d="M66 702q0 127 20 251t86 233q33 55 81 107.5t117.5 94.5t162 66.5t212.5 24.5q49 0 109.5 -6.5t124 -23.5t125 -48t115.5 -80q41 -41 77.5 -92t64.5 -121t45 -160t21 -207q0 -43 -2 -101t-12 -122.5t-30.5 -131.5t-53.5 -124q-55 -94 -130 -151.5t-154.5 -88t-159.5 -41 t-146 -10.5q-330 0 -501.5 188.5t-171.5 542.5zM516 713q0 -49 5 -122t27.5 -141.5t69 -116.5t127.5 -48q80 0 127.5 46t71 114.5t28.5 145.5t5 138q0 88 -10.5 168t-36 140.5t-68.5 96t-108 35.5q-72 0 -118 -34.5t-72.5 -96t-37 -145.5t-10.5 -180z" />
<glyph unicode="P" horiz-adv-x="1323" d="M109 4q6 246 10 482.5t4 459.5q0 76 -1 139.5t-2 121t-2 112.5t-3 117l12 10l424 4l98 2q84 0 159 -3t140.5 -17.5t122.5 -42t107 -78.5q63 -66 87.5 -151t24.5 -175q0 -37 -5 -85t-21.5 -100t-48 -105.5t-82.5 -98.5q-57 -51 -128 -77.5t-148 -39t-155.5 -14.5 t-154.5 -2q0 -47 -1 -92t-1 -92q0 -66 1 -124.5t5 -142.5l-10 -12q-72 0 -121 1q-24 0 -47.5 0.5t-45.5 -0.5q-44 -1 -90.5 -3t-113.5 -4zM549 766q57 0 109.5 4t91.5 27q47 27 71.5 76t24.5 106q0 8 -2 29.5t-11.5 46t-30 49t-57.5 37.5q-35 12 -74.5 14t-121.5 2v-391z " />
<glyph unicode="Q" horiz-adv-x="1492" d="M66 715q0 166 38.5 306t120.5 241.5t211 158t309 56.5q123 0 240 -31t209 -109q68 -57 113 -129.5t71.5 -155.5t37.5 -172t11 -178q0 -147 -22.5 -243.5t-69.5 -173.5q-31 -51 -64.5 -86t-68.5 -58.5t-70.5 -40t-68.5 -30.5q70 -25 122 -42.5t100 -34t101.5 -32.5 t124.5 -37l15 -22q-27 -43 -46.5 -74t-37 -62.5t-35.5 -68.5t-45 -90l-19 -2q-41 23 -67.5 38t-54 29.5t-62.5 33t-90 46.5q-78 41 -158 84t-157 80q-35 16 -66 30.5t-63 28.5l-21 5q-31 6 -68.5 13t-66.5 17q-188 59 -295.5 233.5t-107.5 471.5zM516 711q0 -37 4 -109 t26.5 -143.5t70 -124.5t133.5 -53q25 0 55.5 9t60 33.5t54 65.5t38.5 105q6 27 10.5 58.5t6.5 64t3 61.5t1 49q0 127 -15.5 198.5t-23.5 94.5q-18 53 -45 83t-53.5 45t-51 18t-36.5 3q-72 0 -117 -33.5t-72.5 -95t-38 -145.5t-10.5 -184z" />
<glyph unicode="R" horiz-adv-x="1323" d="M96 1436l10 10h369l107 2q51 1 100 1h48q72 -1 137 -8t121 -25.5t102 -53.5q20 -16 44.5 -44t46 -69t37 -95t15.5 -122q0 -74 -15.5 -128t-31.5 -89q-20 -43 -45 -73.5t-51.5 -51t-54 -34t-52.5 -25.5l186 -363l140 -239l-9 -19l-432 -18l-22 16l-111 258l-129 271 l-67 -2v-154t2 -116t5 -111.5t7 -141.5l-12 -12l-422 -6l-10 12q4 199 7 396.5t3 396.5q0 123 -1 211t-4 158.5t-7.5 133t-10.5 134.5zM539 815q29 0 74.5 2t90 18.5t76 54.5t31.5 107q0 68 -37 114t-129 46q-18 0 -51 -1t-51 -1z" />
<glyph unicode="S" d="M111 57q4 57 6 95t4 72t3 71t1 92l18 6q10 -10 21.5 -18t23.5 -17q61 -45 146.5 -65.5t154.5 -20.5q70 0 110 16.5t60.5 38t26.5 45t6 36.5q0 31 -14 52t-35.5 37.5t-47.5 29t-48 22.5l-103 41q-53 25 -111.5 55.5t-107.5 79.5t-81.5 121t-32.5 176q0 86 26.5 171 t104.5 159q74 68 172 97.5t237 29.5q156 0 250 -30t141 -50l9 -13l-19 -319l-18 -8q-23 16 -44.5 32.5t-45.5 30.5q-53 31 -111.5 46.5t-107.5 15.5q-57 0 -83 -11.5t-36 -19.5q-18 -16 -31.5 -41t-13.5 -53q0 -29 15 -51.5t36.5 -38t45.5 -26.5t40 -17l113 -47 q27 -10 89 -40t128 -89q39 -37 62.5 -77t35.5 -79t16 -75t4 -64q0 -51 -10 -95.5t-23.5 -79t-27.5 -59t-21 -35.5q-45 -68 -105 -109.5t-130 -65t-146.5 -33t-154.5 -9.5q-154 0 -245 25.5t-136 42.5z" />
<glyph unicode="T" horiz-adv-x="1110" d="M6 1139l12 295l15 12h1071l10 -2q-4 -49 -6 -85t-4 -67.5t-3 -66.5t-3 -82l-13 -13l-311 11q0 -96 -1 -190.5t-1 -190.5q0 -186 3 -368.5t7 -377.5l-14 -14h-114h-93t-96 -2t-123 -4l-12 12q2 104 4 188.5t3 161t2 153.5t1 168t1 201.5t1 258.5l-326 -9z" />
<glyph unicode="U" horiz-adv-x="1409" d="M90 1436l8 10h121t95 1t98.5 2t126.5 3l10 -10q-4 -205 -8 -406.5t-4 -406.5q0 -59 3 -121t19 -109q20 -59 63.5 -93t114.5 -34q29 0 68 9.5t74 44.5q47 47 55 124.5t8 190.5q0 135 -1 244.5t-3 203t-5 178.5t-5 171l10 8l375 6l12 -8l-10 -844l-2 -78 q-4 -57 -9.5 -117.5t-23.5 -120t-53 -113.5t-99 -97q-66 -47 -172 -76t-247 -29q-55 0 -124 6.5t-138.5 25.5t-134 54t-109.5 92q-37 45 -56.5 95.5t-30 102.5t-13.5 103.5t-5 100.5v63v261.5t-1 187.5t-3 169t-4 206z" />
<glyph unicode="V" horiz-adv-x="1323" d="M-8 1427l6 13q59 2 118.5 3t119.5 3q53 4 103 6t103 6l15 -8q29 -143 56.5 -286.5t57.5 -286.5q29 -129 58.5 -255t60.5 -253q16 78 32.5 154.5t33.5 154.5q33 158 54 255t36.5 172t29 147.5t33.5 181.5l13 12l385 6l10 -8q-66 -217 -113 -368.5t-80.5 -265.5t-59.5 -201 t-50.5 -174t-51 -186t-63.5 -237l-16 -12h-128.5t-103.5 -1t-103 -2t-128 -3l-12 10q-25 90 -48.5 178t-50.5 180q-29 100 -60.5 202t-60.5 202q-35 111 -65.5 217.5t-63.5 216.5z" />
<glyph unicode="W" horiz-adv-x="2048" d="M0 1427l8 15q53 0 106.5 1t106.5 3l215 12l17 -8l178 -1104q20 109 35.5 193t29 158.5t25.5 147.5t27.5 157.5t33 189t39.5 242.5l13 12l440 6l12 -10q18 -125 33.5 -222.5t29 -179.5t25.5 -157.5t26.5 -155.5t31 -171t36.5 -208l185 1090l14 8l369 6l12 -8l-352 -1434 l-13 -10q-51 2 -101 2h-101q-76 0 -142.5 -2t-156.5 -6l-13 12q-4 20 -12 72.5t-18.5 112t-18.5 112.5t-12 76q-16 86 -32.5 172t-33.5 172q-10 51 -17 102.5t-17 104.5q-20 -102 -40 -201.5t-38 -200.5q-27 -129 -50.5 -258t-48.5 -258l-16 -12q-47 2 -93 2h-93 q-68 0 -135.5 -2t-165.5 -6l-13 12q-35 166 -61.5 294t-50 235.5t-45 204t-45 197.5t-51 220t-62.5 270z" />
<glyph unicode="X" horiz-adv-x="1280" d="M6 4q12 20 45 76.5t70 119t69.5 120t47.5 79.5q23 39 45 78t44.5 81t48 88t54.5 99q-33 55 -56.5 95.5t-42 73t-34.5 61.5t-35 61q-55 98 -113.5 196.5t-111.5 188.5l12 19q55 2 111.5 3t111.5 3q57 4 112.5 6t113.5 6l20 -12q25 -63 42.5 -106.5t32.5 -82t32.5 -78.5 t44.5 -98q29 63 48 107.5t35.5 81.5t31 74.5t34.5 89.5l12 12q66 0 111 -1q22 0 44.5 -0.5t44.5 0.5q44 1 95.5 2t126.5 5l7 -14q-31 -47 -54.5 -86t-46 -78t-48.5 -84t-60.5 -105.5t-79.5 -141.5t-107 -193q82 -154 134.5 -248t92 -167t79.5 -141.5t100 -170.5l-10 -23 l-447 -12l-22 12q-16 41 -28.5 71.5t-30 70.5t-42 99.5t-67.5 155.5l-181 -385l-18 -12h-115t-90 -1t-89 -2t-114 -3z" />
<glyph unicode="Y" horiz-adv-x="1366" d="M-12 1425l8 15q76 0 129 1t102 3t104.5 5t133.5 9l14 -8q20 -51 40 -92t45.5 -91t64.5 -121t98 -181q23 49 45.5 98t47 104.5t53 122t63.5 150.5l10 6l400 6l8 -10q-57 -98 -118.5 -207t-121 -217.5t-113 -208.5t-96.5 -182v-121v-161t1 -124t3 -104t4 -105l-16 -12h-119 t-94 -1t-96 -2t-125 -3l-10 12q2 66 5 120t4 110.5t2 122t1 155.5v107q-16 27 -54 92t-88.5 149t-104.5 177.5t-102 173t-83 138t-45 74.5z" />
<glyph unicode="Z" d="M33 8q92 197 188 399.5t182 378.5q25 51 43.5 89t35 75t35 81t42.5 106l-457 -9l-14 13l21 291l12 14q100 0 198.5 -1t198.5 -1q76 0 150.5 1t150.5 2t157 2t171 3l8 -10l-518 -1131l489 15l11 -13l-21 -295l-12 -18h-631h-117.5t-104.5 -1t-100.5 -2t-105.5 -3z" />
<glyph unicode="[" horiz-adv-x="681" d="M102 1546l13 15l553 8l12 -13q-2 -35 -3 -61.5t-1 -54.5v-40t2 -42l-10 -15l-201 7q-2 -137 -2 -273.5v-273.5q0 -133 1 -256t2 -247t3 -254t4 -273h197l10 -9l-6 -194l-17 -12q-41 2 -84 2h-83h-85t-82 -1t-89.5 -3t-104.5 -5l-12 17q2 160 2 318.5v318.5q0 186 -1 343 t-3 310.5t-6.5 318t-8.5 369.5z" />
<glyph unicode="\" horiz-adv-x="1067" d="M33 1552l2 13h73.5h59.5t61.5 1t79.5 1l23 -19q20 -53 35.5 -92t37 -91t52 -128t84.5 -201q51 -117 99 -234.5t95 -236.5q84 -205 168 -405.5t170 -386.5q6 -14 13.5 -28.5t13.5 -31.5l-2 -12q-33 0 -65 -1t-66 -1q-35 -2 -69 -3t-69 -1l-28 18q-14 35 -46 114t-72 179 t-85 211t-85 212t-72.5 183t-49.5 121q-61 154 -117.5 283t-100.5 230.5t-77 170t-47 99.5q-4 10 -8 18t-8 18z" />
<glyph unicode="]" horiz-adv-x="681" d="M0 1354l6 194l17 13q41 -2 80.5 -2h80.5h84t81 1t91 3t111 4l12 -17q-2 -164 -2 -325.5v-325.5q0 -180 1 -330.5t3 -301t6 -316.5t9 -377l-13 -14l-553 -9l-12 13q2 31 3 60.5t1 58.5v39.5t-2 39.5l10 15l201 -6q0 145 1 288.5t1 288.5q0 125 -1 245t-2 239.5t-3 245.5 t-4 268l-197 -3z" />
<glyph unicode="^" horiz-adv-x="1492" d="M233 635l416 811h213l398 -811h-283l-225 475l-238 -475h-281z" />
<glyph unicode="_" horiz-adv-x="1024" d="M-20 -154h1064v-102h-1064v102z" />
<glyph unicode="`" horiz-adv-x="598" d="M45 1622l8 12q61 0 103.5 -1t81 0t79.5 2t97 3l12 -10q16 -59 28.5 -100t25 -78t29.5 -79t42 -101l-10 -15h-265l-16 9q-39 68 -65.5 112.5t-48 81.5t-45 74t-56.5 90z" />
<glyph unicode="a" d="M45 330q0 127 60.5 203.5t153.5 119.5t202.5 63.5t208.5 33.5q2 18 1 37.5t-13.5 35t-39 24.5t-75.5 9q-109 0 -193 -26.5t-176 -63.5l-14 8l12 258l12 17q45 14 91.5 26t99.5 22.5t114.5 16.5t139.5 6q145 0 229 -27.5t131 -70.5q39 -35 58.5 -76t28.5 -91t9 -110.5 t-2 -136.5l-2 -131v-130t2 -100t5.5 -100.5t9.5 -130.5l-13 -16h-104h-83t-86 -2t-114 -4l-14 14v78q-66 -41 -137.5 -73.5t-159.5 -32.5q-74 0 -136.5 26.5t-108.5 72.5t-71.5 110.5t-25.5 140.5zM436 383q0 -53 33 -81t84 -28q41 0 70.5 12.5t54.5 28.5v211q-37 -4 -79 -9 t-78 -19.5t-60.5 -41t-24.5 -73.5z" />
<glyph unicode="b" horiz-adv-x="1280" d="M88 1550l14 13q74 10 122 18t91 15.5t88.5 16.5t110.5 21l10 -16l-14 -578q43 25 106.5 53.5t165.5 28.5q111 0 196 -39t143.5 -107.5t88 -160.5t29.5 -199q0 -117 -36 -227t-116 -196q-66 -70 -142.5 -109t-155 -57.5t-152.5 -22.5t-133 -4h-391l-15 12q4 305 6 545 t2 420q0 129 -1 212t-3 143.5t-6 109.5t-8 108zM512 262q51 0 108.5 6t106.5 47q31 25 49.5 55.5t28.5 64.5t13 68t3 60q0 43 -7 91t-27.5 89t-57.5 69t-94 28q-35 0 -63.5 -9.5t-59.5 -21.5v-547z" />
<glyph unicode="c" horiz-adv-x="980" d="M51 545q0 156 61.5 283.5t172.5 199.5q66 41 161 67.5t213 26.5q45 0 83 -4t72 -12t65.5 -18.5t66.5 -22.5l10 -12q-6 -43 -11 -75t-8 -62.5t-6 -63.5t-7 -80l-23 -6q-23 23 -61.5 49.5t-120.5 26.5q-49 0 -92 -18.5t-76 -54.5t-52.5 -89t-19.5 -123q0 -61 16.5 -114.5 t49.5 -92.5t83 -61.5t120 -22.5q76 0 115.5 16.5t80.5 43.5l14 -11l-12 -278l-10 -12q-72 -20 -136.5 -35t-150.5 -15q-182 0 -297.5 56.5t-182.5 141.5t-92.5 185.5t-25.5 186.5z" />
<glyph unicode="d" horiz-adv-x="1280" d="M49 500q0 141 49 273t160 218q55 43 118.5 65.5t129.5 31.5q66 10 130 11h42q42 0 80 -1v149.5t-1 106.5t-4 91t-8 103l13 13l409 71l13 -10q-4 -76 -6.5 -126t-3.5 -105.5t-2 -131t-1 -204.5q0 -27 -1 -98.5t-1 -152.5t-1 -153.5t-1 -103.5q0 -86 1 -155.5t2 -131 t3 -121t5 -123.5l-13 -16q-61 0 -105 1q-22 0 -43 0.5t-42 -0.5q-41 -1 -87 -3t-110 -4l-10 14l2 90q-55 -53 -129 -88t-178 -35q-100 0 -177 44t-128.5 118t-78 168t-26.5 195zM471 524q0 -47 5 -94t28 -88q23 -37 54.5 -59.5t74.5 -22.5q35 0 64.5 12.5t58.5 28.5 q2 80 3 138.5t1 113.5t-1 118.5t-1 155.5q-14 0 -27.5 1t-28.5 1q-66 0 -109.5 -23.5t-70 -64.5t-39 -97t-12.5 -120z" />
<glyph unicode="e" horiz-adv-x="1150" d="M49 547q0 158 50.5 267.5t130 177t178 98t194.5 30.5q78 0 165 -21.5t153 -74.5q70 -55 107.5 -126t55 -146.5t20.5 -147.5t3 -129l-14 -16l-635 -8q10 -47 25.5 -82t68.5 -68q23 -14 70 -28.5t118 -14.5q84 0 164 17.5t150 64.5l14 -10l-10 -262l-13 -19 q-37 -16 -69 -29q-29 -10 -113 -27.5t-203 -17.5q-41 0 -90 4.5t-101 14.5t-103.5 29.5t-96.5 50.5q-117 80 -168 204.5t-51 268.5zM446 676l275 4q0 18 -4 50t-16.5 61.5t-39 51t-71.5 21.5q-8 0 -21.5 -1t-29.5 -9q-33 -14 -50.5 -36.5t-26.5 -47.5t-12.5 -50.5 t-3.5 -43.5z" />
<glyph unicode="f" horiz-adv-x="768" d="M2 831l14 248l17 19l137 -4q-2 29 -3 58.5t-1 57.5q0 86 10 164t50 138.5t119 95t216 34.5q59 0 115.5 -5t114.5 -11l10 -12q-4 -43 -7 -75t-6.5 -60.5t-4.5 -59t-3 -73.5l-16 -11q-16 4 -33.5 8.5t-36.5 4.5q-45 0 -69.5 -20.5t-35.5 -55.5t-12.5 -82t-1.5 -100l177 8 l10 -15l-21 -252l-16 -12l-147 2v-232t1 -180t5 -175.5t10 -219.5l-14 -14h-112h-88t-90 -2t-118 -4l-14 12q4 104 6 183t4 166t2 197v273l-156 -6z" />
<glyph unicode="g" d="M63 -205q0 51 14.5 90t34 68t42 47t39.5 31l-80 63l2 17q29 53 47 85.5t33.5 61.5t32 61.5t40.5 83.5q-20 10 -40.5 20.5t-39.5 25.5q-45 35 -85 103.5t-40 160.5q0 96 38 163.5t83 108.5q49 43 108.5 67.5t120 35t115 12.5t93.5 2q27 0 46 -1t36.5 -1t33 -1t35.5 -1h399 l15 -11q-4 -41 -6 -68.5t-3 -54t-2 -57t-4 -76.5l-10 -12l-139 37q18 -37 31.5 -72.5t13.5 -87.5q0 -92 -43 -157.5t-109.5 -107.5t-144.5 -60.5t-147 -18.5q-23 0 -42.5 1t-41.5 3l-39 -86l184 -28l76 -15q41 -6 105.5 -22.5t126 -52t105.5 -99t44 -166.5 q0 -57 -23.5 -126.5t-86 -130t-174.5 -101.5t-288 -41q-80 0 -158.5 9t-152.5 40q-63 25 -101 59.5t-58.5 70.5t-28 70t-7.5 58zM418 -154q0 -41 19.5 -67.5t47 -42t58 -21.5t53.5 -6q80 0 113.5 30t33.5 62q0 27 -14 44.5t-37.5 28.5t-52 17.5t-55.5 10.5q-23 4 -67 14 t-81 18q-6 -23 -12 -44t-6 -44zM455 741q0 -16 4 -46.5t16 -60.5t37 -51.5t68 -21.5q18 0 39.5 7t38 24.5t27.5 47.5t11 75q0 72 -30.5 122t-92.5 50q-29 0 -51 -13.5t-37.5 -34t-22.5 -47t-7 -51.5z" />
<glyph unicode="h" horiz-adv-x="1280" d="M72 1550l8 13q68 10 113 17t88 14.5t93 16.5t128 23l12 -12v-621q23 14 55.5 36t75.5 40.5t96.5 31.5t116.5 13q98 0 149.5 -29.5t79.5 -58.5q55 -57 66.5 -133t13.5 -186v-156q0 -102 1 -172t3.5 -127t5.5 -113.5t7 -130.5l-17 -16q-39 0 -77.5 1t-77.5 1 q-59 0 -113.5 -2t-130.5 -6l-12 18q0 45 1 84t1 82q0 63 -1 126t-1 128v74q0 154 -18.5 228.5t-98.5 74.5q-33 0 -61.5 -11.5t-57.5 -25.5q0 -139 2 -231t4 -171t5.5 -160t7.5 -196l-15 -14q-66 0 -112 1q-23 0 -46 1q-24 0 -46 -1q-44 -1 -92 -3t-115 -4l-11 14 q2 172 3 341t1 341q0 137 -1 239.5t-3 180.5t-4 135.5t-6 106.5t-9 96t-11 102z" />
<glyph unicode="i" horiz-adv-x="641" d="M86 1049l12 12l119 17t94 14.5t95.5 16.5t121.5 24l11 -17q-2 -115 -3 -227.5t-1 -226.5q0 -121 2 -213.5t5 -168t6 -140t7 -126.5l-14 -14q-74 0 -124 1q-25 0 -49 0.5t-48 -0.5q-46 -1 -93 -3t-114 -4l-15 14q4 139 8.5 276.5t4.5 278.5q0 90 -2.5 157.5t-5.5 123 t-7 103.5t-10 102zM96 1542l15 14l403 54l12 -15v-327l-12 -13q-66 -8 -111 -14t-86 -12t-85 -13.5t-109 -19.5l-19 12z" />
<glyph unicode="j" horiz-adv-x="641" d="M-72 -258l6 14q51 12 85 30.5t54.5 52.5t28 87.5t7.5 132.5q0 18 -1.5 64.5t-1.5 98.5t-1 99.5t-1 65.5q-2 172 -3 274.5t-4 167t-7 110.5t-10 108l14 14q66 8 113 15t91 15.5t94 17.5t124 24l14 -13q-2 -45 -4 -82t-3 -70.5t-1 -68.5v-76v-69.5t1 -108t2 -129t2 -129 t1 -111v-73.5v-88q1 -45 1 -88v-41q-1 -62 -14 -117t-44 -108.5t-88 -106.5q-53 -49 -108.5 -82t-106.5 -52.5t-96 -29.5t-76 -16l-14 8zM80 1542l12 14l404 54l12 -15v-327l-12 -13q-66 -8 -111 -14t-86 -12t-86 -13.5t-109 -19.5l-18 12v91v73t-2 74t-4 96z" />
<glyph unicode="k" horiz-adv-x="1236" d="M74 1546l14 17l420 71l14 -12q-2 -84 -4 -154.5t-3 -137t-2 -136.5t-2 -153t-1 -184v-234q49 92 80 150t54.5 104.5t45 91.5t51.5 114l19 15h112h86.5t84.5 2t108 4l14 -21q-14 -23 -24.5 -38t-23.5 -34.5t-32.5 -48t-50.5 -75.5q-16 -23 -25.5 -37t-21.5 -32.5 t-31.5 -48.5t-52.5 -81q49 -104 85 -179t63.5 -131t48 -99t40 -82t40 -78t45.5 -90l-17 -17l-434 -18l-18 14q-12 33 -22.5 61.5t-24 59.5t-28.5 69t-39 91t-55.5 125.5t-76.5 173.5v-184.5t2 -133t5 -118l7 -136.5l-16 -16q-41 2 -84 2h-86q-57 -2 -113.5 -3t-113.5 -5 l-17 12q2 82 4 148.5t4 128t2 122v134.5q0 242 -2 396.5t-6 261t-9 184t-13 165.5z" />
<glyph unicode="l" horiz-adv-x="641" d="M82 1548l12 13l424 73l17 -18v-109.5t-1.5 -169t-1.5 -201t-1 -202.5t-1 -173v-116q0 -88 1 -159.5t3.5 -143.5t5.5 -149.5t7 -178.5l-15 -14q-72 0 -122 1q-25 0 -48.5 0.5t-46.5 -0.5q-45 -1 -92 -3t-114 -4l-15 14q2 82 4 147.5t3 130t2 138.5t1 170v308t-1 214 t-2 146.5t-4 104.5t-7 87t-8 94z" />
<glyph unicode="m" horiz-adv-x="1878" d="M90 1049l12 12q70 8 118 15t93 15.5t93.5 17.5t119.5 24l17 -17l-2 -125q29 20 61.5 44t70.5 42.5t81 30.5t94 12q59 0 100 -14t67.5 -34.5t42 -43t23.5 -37.5q29 23 53.5 39.5t67.5 36.5q57 27 118.5 39t123.5 12q96 0 151.5 -28.5t77.5 -49.5q31 -31 48.5 -65.5 t26.5 -72.5t11 -76t2 -70l2 -68v-186.5t2 -145t5.5 -147.5t7.5 -195l-15 -14h-111.5t-87.5 -1t-89.5 -2t-116.5 -3l-15 12q0 74 1.5 148.5t2.5 142.5t1 122v87v55t-2.5 71t-5.5 67.5t-9 48.5q-16 37 -39.5 49t-50.5 12q-23 0 -47.5 -7t-48.5 -18v-220t2 -169t4 -167t6 -214 l-12 -14h-101.5t-84 -1t-92 -2t-124.5 -3l-16 14q0 27 1 95.5t2 147.5t1 149.5v99.5q0 98 -5 158.5t-17.5 94t-32 45t-47.5 11.5q-27 0 -51.5 -9t-49.5 -22v-228t2 -170t4.5 -162t6.5 -204l-15 -14l-405 -6l-17 14q2 168 4.5 266.5t3.5 155.5t1 87v63q0 86 -2 152.5 t-5.5 120.5t-7.5 101t-8 95z" />
<glyph unicode="n" horiz-adv-x="1280" d="M78 1053l12 12q68 8 114 15t89 14.5t92 16.5t121 26l20 -19l-4 -112q23 16 44.5 30.5t43.5 28.5q63 35 132 47t112 12q66 0 136.5 -24.5t117.5 -100.5q23 -35 35 -73.5t17 -88t6 -112.5t1 -145v-111q2 -92 3 -150.5t3.5 -105.5t4.5 -92t6 -107l-17 -14q-61 0 -105 1 q-22 0 -44 0.5t-43 -0.5q-43 -1 -92 -3t-119 -4l-10 12q0 53 1 106.5t1 106.5v96q0 57 -1 115.5t-3 111t-5.5 92.5t-5.5 60q-2 12 -5 31.5t-14 37t-30.5 31t-54.5 13.5q-29 0 -56.5 -11.5t-56.5 -25.5q-2 -31 -2 -83t1 -111.5t3 -117t2 -96.5q2 -82 3 -131t2.5 -83.5 t2.5 -64.5t3 -69l-11 -14q-61 0 -107 1q-23 0 -45.5 0.5t-44.5 -0.5q-44 -1 -94.5 -3t-119.5 -4l-13 14q2 98 3.5 193.5t1.5 193.5q0 131 -2.5 225.5t-6.5 168t-10 136t-12 128.5z" />
<glyph unicode="o" horiz-adv-x="1236" d="M57 539q0 111 23.5 219t95.5 194q51 59 113.5 93t125 50.5t117 20.5t89.5 4q117 0 226 -30.5t191 -110.5q27 -27 52.5 -62.5t45 -87t32 -120t12.5 -160.5q0 -29 -3 -73t-12.5 -96t-27 -105.5t-47.5 -98.5q-80 -113 -204 -157t-263 -44q-53 0 -129 9.5t-142 33.5 q-102 37 -160.5 101.5t-88 139.5t-38 149.5t-8.5 130.5zM481 528q0 -49 3 -94t14 -88q10 -43 28.5 -67.5t38 -35t34.5 -12.5t19 -2q35 0 61 20.5t42 55.5q12 25 19.5 63t10.5 77.5t4 72.5t1 49q0 141 -29 221t-104 80q-47 0 -76 -27.5t-43.5 -73.5t-18.5 -107.5t-4 -131.5z " />
<glyph unicode="p" horiz-adv-x="1280" d="M82 1047l12 14q68 8 114 15t89 15.5t89 17.5t114 24l18 -19l-2 -92q16 12 41 29.5t58.5 33t78.5 25.5t105 10q111 0 192.5 -45t136 -118.5t81 -167t26.5 -187.5q0 -66 -11.5 -129t-35.5 -125q-29 -72 -78 -136.5t-137 -117.5q-111 -66 -222.5 -80t-215.5 -18l16 -496 l-12 -12q-20 2 -41 2h-41q-20 2 -40 2h-42q-63 0 -126 -3t-130 -7l-15 12q4 178 6.5 352t2.5 353q0 178 -2 302t-6.5 218t-10.5 170t-12 158zM532 262q27 0 55.5 2t57.5 10.5t57.5 25.5t55.5 48q23 29 42 83t19 134q0 86 -12 124t-23 54q-4 8 -14 23.5t-27.5 30t-42 24.5 t-59.5 10q-33 0 -57.5 -9t-51.5 -19v-541z" />
<glyph unicode="q" horiz-adv-x="1280" d="M45 496q0 139 32 231t66 143q57 88 135 135.5t168.5 69t187.5 24.5q58 2 117 2q39 0 78 -1h89l241 4l17 -12q-2 -70 -4.5 -126.5t-3.5 -108.5t-2 -107.5t-1 -122.5l2 -236l4 -334q2 -111 3.5 -180.5t3.5 -125.5t5 -111.5t7 -139.5l-14 -12q-37 0 -73 1t-71 1 q-66 0 -129 -2t-137 -6l-14 12l8 555q-41 -23 -103.5 -48.5t-162.5 -25.5q-96 0 -179.5 34t-142.5 99.5t-93 163t-34 224.5zM473 553q0 -31 4 -82t20.5 -100t52.5 -85t101 -36q29 0 54.5 7t52.5 17v549q-29 2 -58.5 2t-60.5 -6q-55 -12 -88 -43t-50.5 -68.5t-22.5 -79.5 t-5 -75z" />
<glyph unicode="r" horiz-adv-x="854" d="M88 1049l12 14q68 8 115 14t91 13.5t95.5 17.5t124.5 27l15 -17l-4 -205q10 23 21 47.5t28 47.5q84 129 225 129q35 0 72 -7l14 -12q-16 -72 -27.5 -119t-20.5 -90t-17.5 -92t-20.5 -121l-20 -6q-23 16 -45.5 26.5t-61.5 10.5q-55 0 -86 -21.5t-45 -57.5t-16 -81t-2 -92 v-50.5t2 -49.5l6 -359l-15 -16q-68 0 -117 1q-24 0 -47.5 0.5t-45.5 -0.5q-44 -1 -91 -2t-114 -3l-15 14q4 141 8.5 282.5t4.5 282.5q0 90 -1 155t-4.5 117t-7.5 99t-10 103z" />
<glyph unicode="s" horiz-adv-x="1024" d="M63 72l15 266l20 10q18 -16 37 -30.5t41 -26.5q51 -33 113.5 -50.5t116.5 -17.5q45 0 69.5 11.5t36.5 24.5t14 25.5t2 16.5q0 39 -32.5 57.5t-73.5 34.5l-86 35q-45 20 -97.5 47t-91.5 74q-25 29 -48 85t-23 128q0 94 42 165.5t95 112.5q43 31 92 48.5t97.5 25.5t89 10 t67.5 2q104 0 179 -15t151 -38l12 -12q-6 -45 -9 -76t-5 -57.5t-4 -54t-4 -64.5l-21 -6q-37 27 -96.5 57.5t-157.5 30.5q-41 0 -63.5 -11.5t-32.5 -25.5t-12 -26l-2 -13q0 -25 22.5 -43t63.5 -35l143 -59q27 -10 55.5 -24.5t61.5 -41.5q41 -33 81 -96t40 -158 q0 -84 -33 -154.5t-96.5 -120.5t-157.5 -79t-217 -29q-111 0 -201 19.5t-127 34.5q-14 4 -27.5 10t-25.5 10z" />
<glyph unicode="t" horiz-adv-x="768" d="M0 834l12 249l15 15h116v268l11 14q59 14 102 25.5t84 23t86 24.5t109 32l18 -12l-6 -383h48t41.5 1t45.5 2t59 5l17 -15l-23 -245l-16 -17q-25 0 -48.5 1t-45.5 1l-78 -2l-6 -358q0 -31 2 -80t16 -76q14 -25 41 -37t55 -12q29 0 54.5 6t50.5 17l16 -9l-20 -252l-15 -14 q-66 -14 -123 -22.5t-131 -8.5q-152 0 -228.5 47.5t-104.5 143.5q-12 41 -14.5 85t-2.5 116q0 70 1 139t1 139l4 180l-131 -4z" />
<glyph unicode="u" horiz-adv-x="1280" d="M102 1079l15 13l391 18l16 -18q0 -55 1 -109.5t1 -110.5q0 -18 -1 -64t-1 -99.5t-1 -101.5t-1 -68q0 -49 2 -94.5t12.5 -81t34 -56t66.5 -20.5q33 0 62.5 12t58.5 29l-13 749l13 15q68 2 112.5 3t86.5 3t87.5 5t110.5 7l16 -20q-2 -164 -3 -327t-1 -327v-137t1 -100 t3.5 -87t4.5 -98l-15 -14h-102t-83 -1t-86 -2t-114 -3l-14 14l2 94q-18 -14 -37.5 -28.5t-40.5 -24.5q-59 -35 -128 -55.5t-128 -20.5q-88 0 -151.5 37t-96.5 78q-29 35 -43 75t-21 90t-7 112.5v144.5v88q0 82 1 140v55.5v52.5q-1 51 -3.5 104.5t-6.5 128.5z" />
<glyph unicode="v" horiz-adv-x="1110" d="M0 1077l12 15q70 0 117 1t91 3t93 5t123 9l17 -12l49 -246q23 -104 48 -207.5t50 -208.5l62 258q16 66 26 111t19.5 85t17.5 84t20 111l15 13l342 6l8 -14q-61 -182 -105 -313.5t-76 -227.5t-55.5 -167t-43 -130t-37 -114.5t-37.5 -123.5l-21 -14h-103h-81t-81 -2t-99 -4 l-17 12q-14 43 -27.5 85t-25.5 85q-20 66 -32.5 108t-25 80.5t-26.5 83t-39 113.5q-43 129 -89 266.5t-89 249.5z" />
<glyph unicode="w" horiz-adv-x="1705" d="M6 1075l10 17q68 0 113 1t86 3t85 5t110 9l14 -12q18 -104 31.5 -177t28 -141.5t31.5 -147.5t44 -192q25 115 42 193t30.5 145.5t26 138t30.5 168.5l12 13q68 -2 116 -2t91 1t92.5 2t120.5 5l17 -12q14 -86 25.5 -154t23.5 -138.5t28.5 -155.5t38.5 -208 q27 113 43.5 189.5t29.5 145.5t25.5 140.5t28.5 173.5l13 13q49 -2 83.5 -2t67.5 1t71 2t95 5l10 -14q-39 -133 -68.5 -236.5t-53 -189.5t-44 -160t-42 -148.5t-43 -157.5t-50.5 -184l-12 -14q-66 0 -110 1q-22 0 -43.5 0.5t-41.5 -0.5q-41 -1 -88 -3t-114 -4l-17 14 q-16 86 -30.5 173t-30.5 175q-16 76 -29.5 151t-30.5 150l-143 -645l-14 -12h-115h-89t-86 -2t-106 -4l-18 12q-6 20 -11 40t-14.5 52.5t-22.5 85t-36 140.5q-37 141 -80 282q-35 117 -66.5 234.5t-64.5 234.5z" />
<glyph unicode="x" horiz-adv-x="1110" d="M-16 10q45 68 87 129.5t83 124t87 131t101 152.5q-6 10 -23.5 38.5t-39 64.5t-44 70t-36.5 56q-51 74 -101.5 148.5t-99.5 150.5l12 15q53 2 105.5 3t105.5 3q55 2 110.5 5t110.5 7l19 -8q23 -47 37 -77t27.5 -54.5t27.5 -52t37 -70.5q23 43 37 71.5t26.5 54t23.5 51.5 t28 62l18 13q55 0 94 -1q20 0 39 -0.5t38 0.5q38 1 82 2t109 5l11 -17q-29 -41 -46.5 -66.5t-34 -49t-34.5 -51t-49 -72.5q-10 -14 -35 -51t-52.5 -79t-52 -80t-34.5 -54q80 -131 129 -211t85 -137.5t68.5 -105.5t77.5 -116l-6 -14h-116.5t-116.5 -2q-53 -2 -104.5 -4 t-104.5 -6l-21 10q-18 39 -31.5 67.5t-28 57.5t-32.5 64.5t-47 91.5q-31 -59 -49.5 -95.5t-31.5 -63t-24.5 -50t-25.5 -58.5l-19 -12q-35 0 -69.5 1t-69.5 1q-53 0 -104 -2t-123 -6z" />
<glyph unicode="y" horiz-adv-x="1110" d="M-20 1077l8 15q76 0 126 1t96 3t95 5t121 9l16 -12q25 -102 40.5 -171t30.5 -131.5t34.5 -132t48.5 -174.5q33 111 53.5 183.5t36.5 134t32.5 125t39.5 153.5l12 13l328 6l12 -14l-246 -697l-104 -311q-35 -106 -56.5 -179t-39 -134.5t-33 -123t-35.5 -145.5l-16 -12h-91 t-76 -1t-85 -2t-117 -3l-10 16q31 70 51 119t38.5 96t39 101.5t51.5 134.5q-29 88 -51.5 156.5t-42 127t-38 110.5t-38.5 112q-25 72 -51.5 142.5t-50.5 141.5q-27 74 -42.5 118t-27.5 76t-25.5 63.5t-33.5 80.5z" />
<glyph unicode="z" horiz-adv-x="1024" d="M27 12q31 57 50 93t34.5 65t29 57.5t35.5 71.5q8 18 27.5 58t43 91.5t50.5 107.5t50.5 108.5t43 93.5t29.5 61h-340l-10 10l22 258l10 11q84 0 152 -1t128 -1t119.5 1t128 2t152.5 2t195 3l10 -19q-84 -156 -185.5 -364.5t-211.5 -452.5l381 13l14 -11l-27 -262l-12 -8 q-86 0 -171 1t-171 1q-143 0 -288.5 -2t-280.5 -6z" />
<glyph unicode="{" horiz-adv-x="724" d="M33 489v142q57 16 96 60t53 102q4 14 6 27.5t3.5 33.5t2.5 50t1 79v180q0 98 8 172t57 131q33 39 77 59.5t103.5 30t138 11.5t181.5 2v-142q-37 -10 -69 -20t-58.5 -26.5t-46 -42t-31.5 -66.5q-12 -37 -14 -79t-2 -110v-77q0 -70 -1 -116t-4.5 -80t-8.5 -57.5t-15 -45.5 q-16 -41 -42 -67t-52.5 -42t-52 -24.5t-41.5 -12.5q16 -6 41.5 -14t52 -24.5t52.5 -43t42 -65.5q10 -23 15 -46.5t8.5 -57.5t4.5 -80t1 -115v-78q0 -68 2 -110t14 -79q12 -41 31.5 -66.5t46 -41.5t58.5 -26.5t69 -20.5v-142q-102 0 -181 2.5t-138.5 11.5t-103.5 29.5 t-77 59.5q-49 57 -57 131t-8 172v180q0 49 -1 79t-2.5 50.5t-3.5 33.5t-6 28q-14 57 -53 101t-96 60z" />
<glyph unicode="|" horiz-adv-x="468" d="M104 -512v2048h261v-2048h-261z" />
<glyph unicode="}" horiz-adv-x="724" d="M-35 -307q37 10 69 20.5t58.5 26.5t46 41.5t31.5 66.5q12 37 14 79t2 110v78q0 70 1 115.5t4.5 79.5t8.5 57.5t15 46.5q16 39 42 65.5t52.5 43t52 24.5t41.5 12q-16 6 -41.5 14.5t-52 24.5t-52.5 42t-42 67q-10 23 -15 46t-8.5 57t-4.5 80t-1 116v77q0 68 -2 110t-14 79 q-12 41 -31.5 66.5t-46 42t-58.5 26.5t-69 20v142q102 0 181 -2t138.5 -11.5t103.5 -30t77 -59.5q49 -57 57 -130.5t8 -172.5v-180q0 -49 1 -79t2.5 -50t3.5 -33.5t6 -27.5q14 -57 53 -101.5t96 -60.5v-142q-57 -16 -96 -60t-53 -101q-4 -14 -6 -27.5t-3.5 -34t-2.5 -50.5 t-1 -79v-180q0 -98 -8 -172t-57 -131q-33 -39 -77 -59.5t-103.5 -29.5t-138 -11.5t-181.5 -2.5v142z" />
<glyph unicode="~" horiz-adv-x="1492" d="M211 614q18 25 45 59t64.5 63.5t90 51t119.5 21.5q57 0 106.5 -18.5t104.5 -45.5l74 -32q41 -18 79 -32.5t75 -14.5q41 0 91 24.5t116 102.5l106 -215q-25 -29 -60.5 -60t-76.5 -55.5t-87 -39.5t-95 -15q-59 0 -111.5 20.5t-101.5 42.5l-64 31q-49 23 -82 34t-67 11 q-33 0 -56.5 -7.5t-47 -23.5t-49.5 -44t-60 -69z" />
<glyph unicode="&#xa1;" horiz-adv-x="641" d="M51 4q8 90 17.5 217t16.5 266.5t12 278.5t7 256l13 18l301 7l10 -15q6 -143 10 -248.5t8.5 -186.5t8.5 -146.5t8 -128t10 -132t14 -159.5l-12 -17l-407 -20zM72 1219l2 340l10 8l383 4l10 -15v-327l-14 -12q-39 0 -78 1t-80 1h-41l-184 -7z" />
<glyph unicode="&#xa2;" horiz-adv-x="1024" d="M51 541q0 154 55.5 269.5t137.5 180.5q39 33 87 55.5t98 37t100.5 20.5t95.5 6q25 0 45 -1t45 -3q6 25 9 40t6 29.5t5 30t6 37.5l17 12h41h30.5t32 1t43.5 1l10 -14q-12 -41 -20 -72.5t-25 -85.5q39 -10 58.5 -16t56.5 -20l10 -19q-6 -39 -11 -67.5t-9 -57t-7 -63.5 t-7 -86l-19 -13q-25 12 -42 19.5t-31.5 11.5t-30 8t-35.5 9q-31 -123 -62.5 -251t-66.5 -272q12 0 25.5 -1t25.5 -1q68 0 124 24.5t97 47.5l17 -8q-4 -47 -7.5 -78t-5.5 -58.5t-3 -60.5t-3 -82l-12 -18q-41 -16 -77 -26.5t-74 -15.5t-81 -8t-98 -3q-6 -27 -11 -45.5t-8 -34 t-6.5 -31.5t-7.5 -39l-14 -14h-50.5h-35.5t-33.5 -1t-46.5 -3l-12 14q8 29 15 48.5t12.5 36.5t10.5 36.5t13 46.5q-41 10 -99.5 33.5t-117.5 76.5q-72 68 -116 185t-44 252zM444 532q0 -84 24.5 -126.5t51.5 -75.5q20 82 33.5 136t26 102t25.5 100.5t34 128.5 q-20 -4 -53 -15.5t-65 -39t-54.5 -78t-22.5 -132.5z" />
<glyph unicode="&#xa3;" horiz-adv-x="1067" d="M51 602l12 207l17 10l100 -2l-4 74t-2 74q0 127 35 213t119 145q41 31 89 49.5t97 28.5t96 13t84 3q61 0 108.5 -4t87.5 -10t73.5 -13.5t64.5 -15.5l10 -14l-20 -264l-19 -13q-37 16 -85 31.5t-121 15.5q-43 0 -89.5 -12t-74.5 -43q-31 -31 -38 -76t-9 -102l-2 -78l325 8 l13 -12l-15 -211l-12 -10h-311l-23 -334l465 8l10 -8l-14 -240l-12 -20h-897l-15 23q10 31 18.5 56t15.5 52t14.5 58.5t13.5 76.5q8 57 13 102.5t8 84.5t5 72.5t4 70.5l-125 -6z" />
<glyph unicode="&#xa4;" horiz-adv-x="1366" d="M12 219l168 166q-14 23 -29.5 51.5t-28.5 66.5t-21.5 86t-8.5 113q0 53 7 95.5t18.5 76t27 64.5t33.5 63l-162 166l193 195l164 -164q33 18 64.5 33.5t67.5 28t80 19.5t99 7q57 0 99 -7t78 -18.5t66.5 -27.5t65.5 -35l164 164l197 -195l-166 -163q18 -33 33.5 -65 t27 -66.5t18.5 -77.5t7 -99q0 -59 -7 -102t-18.5 -79t-28 -67.5t-34.5 -64.5l168 -168l-199 -195l-164 168q-66 -35 -133 -60.5t-176 -25.5q-55 0 -98 7.5t-80 19.5t-69 28.5t-62 35.5l-166 -168zM348 692q0 -78 29 -140.5t77 -105.5t108.5 -66.5t121.5 -23.5q70 0 131.5 26 t106.5 72t70.5 107t25.5 133q0 80 -28.5 142.5t-77 106.5t-109 66.5t-121.5 22.5q-59 0 -118.5 -21.5t-106.5 -64.5t-78 -106.5t-31 -147.5z" />
<glyph unicode="&#xa5;" horiz-adv-x="1323" d="M0 1366l8 14q61 2 123 2t123 4q100 2 207 13l14 -10q20 -47 38.5 -86t43.5 -87.5t61.5 -117t96.5 -174.5q27 55 49 104t46 100.5t49.5 110.5t58.5 139l10 8h118t88 1.5t80.5 2.5t100.5 3l8 -11q-37 -61 -64.5 -108t-56 -98.5t-63.5 -114t-86 -156.5h61h33t37 2l12 -12 q-2 -55 -4 -89t-3 -56.5t-2 -40t-1 -37.5l-12 -13q-18 0 -31 1.5t-22 1.5h-19h-25h-155l-33 -62v-94h192q35 0 57.5 1t45.5 3l12 -12q-2 -55 -4 -90t-3 -57.5t-2 -39t-1 -37.5l-12 -12h-45t-87.5 1t-92.5 1h-58q0 -39 1 -78t1 -73.5t1 -61t1 -39.5l-14 -14q-74 0 -122 1 t-90 0t-89.5 -2t-120.5 -3l-10 10q2 39 4 65.5t3 53.5t2 58.5t1 82.5q-35 0 -81 -1t-90 -1h-76h-36l-12 14q2 33 4 56.5l4 47t2 50.5v66l14 12h53.5t82.5 -1t81.5 -1h55.5v88l-39 68h-246l-12 14q2 33 4 56.5t3 47t2 49t1 64.5l14 14q16 -2 33 -2h55l-36 60q-12 20 -46 77.5 t-72 121t-73 120.5t-49 82z" />
<glyph unicode="&#xa6;" horiz-adv-x="468" d="M104 389h261v-780h-261v780zM104 631v780h261v-780h-261z" />
<glyph unicode="&#xa7;" horiz-adv-x="1150" d="M57 571q0 74 18.5 128.5t45 95.5t58.5 68.5t57 47.5q-18 16 -35 34t-31 41.5t-22.5 54t-8.5 73.5q0 100 43 168t88 102q37 27 83 46.5t95.5 29.5t97.5 15.5t89 5.5q109 0 190.5 -18.5t167.5 -43.5l15 -16q-6 -43 -9.5 -74t-5.5 -58.5t-4 -58t-4 -75.5l-18 -11 q-43 25 -115 58t-158 33q-61 0 -98 -24t-37 -65q0 -39 31 -57t108 -47l103 -45q45 -20 97 -47t97 -67t75 -96t30 -136q0 -66 -18.5 -118t-45 -93t-58.5 -73t-56 -54q41 -41 70.5 -84t29.5 -127q0 -115 -49 -190.5t-126 -121.5t-171 -65.5t-184 -19.5q-100 0 -181.5 17 t-163.5 40l-12 16q4 45 7 76t6.5 59.5t5.5 60.5t4 79l16 10q20 -10 39.5 -21.5t40.5 -19.5q47 -20 105.5 -29.5t105.5 -9.5q63 0 107 22.5t44 63.5q0 20 -11 36.5t-27.5 28t-35 18.5t-32.5 11q-20 8 -38.5 15.5t-37.5 15.5l-92 39q-45 20 -95 48t-92 69t-70 99t-28 140z M360 666q0 -51 37 -79t80 -50q6 -4 24.5 -12.5t38 -17.5t38 -17.5t26.5 -10.5l121 -57q27 29 45 53.5t18 59.5q0 57 -65 100q-10 6 -18.5 10t-30 13.5t-60.5 26.5t-108 48l-86 43q-25 -29 -42.5 -53.5t-17.5 -56.5z" />
<glyph unicode="&#xa8;" horiz-adv-x="598" d="M-113 1528l9 8q51 2 86.5 4t71.5 4t76 5t99 7l9 -8v-321l-13 -10l-319 -23l-10 10zM369 1528l6 10l330 27l8 -6v-332l-8 -8l-316 -25l-12 8z" />
<glyph unicode="&#xa9;" horiz-adv-x="1705" d="M125 723q0 156 58.5 289t157.5 231t231.5 153.5t281.5 55.5q162 0 296 -59.5t230.5 -161t149.5 -233.5t53 -279q0 -156 -58.5 -289t-157.5 -229.5t-231 -151.5t-280 -55q-147 0 -280.5 54t-232.5 150.5t-158.5 230.5t-59.5 294zM190 719q0 -131 50.5 -251t138.5 -210 t210 -144.5t265 -54.5q139 0 267 54.5t225 156.5q49 53 81.5 113.5t53 120t29 115t8.5 100.5q0 135 -49.5 257t-137.5 213t-210 144t-265 53q-137 0 -258 -51t-212 -140t-143.5 -212t-52.5 -264zM358 725q0 104 36 197.5t101.5 163t161 110.5t211.5 41q86 0 149.5 -18.5 t112 -45t83 -57.5t59.5 -55l-178 -170q-16 14 -38 31.5t-48.5 33t-60.5 25.5t-77 10q-123 0 -190.5 -75.5t-67.5 -188.5t65.5 -189.5t199.5 -76.5q45 0 80.5 10t62.5 25.5t45 31t29 25.5l178 -166q-82 -86 -176.5 -129t-223.5 -43q-131 0 -227 43t-159.5 113.5t-95.5 163 t-32 190.5z" />
<glyph unicode="&#xaa;" horiz-adv-x="811" d="M45 944q0 82 41 133t102.5 80t133 41t131.5 19v14q-2 33 -21.5 44t-64.5 11q-78 0 -137.5 -20.5t-100.5 -36.5l-10 4q0 14 2 29q2 12 2 27.5t2 31.5v19.5t1 29.5t1 24.5t0 6.5l8 10q41 14 112.5 30.5t188.5 16.5q100 0 153.5 -23.5t76.5 -45.5q23 -23 35 -48.5t17 -56.5 t5 -69.5v-90.5l-2 -84v-94t1 -67.5t3 -62.5t6 -79l-8 -10h-117.5t-134.5 -4l-10 8v53q-35 -23 -84 -47t-113 -24q-43 0 -82 15t-69.5 45t-49 73t-18.5 98zM299 977q0 -29 18.5 -50.5t57.5 -21.5q12 0 33.5 5.5t48.5 21.5v139q-23 -2 -50.5 -5t-51 -12.5t-40 -27.5t-16.5 -49 z" />
<glyph unicode="&#xab;" horiz-adv-x="1024" d="M12 578v22q63 111 100.5 175.5t56.5 100t29.5 54t22.5 41.5l15 14q45 -2 76.5 -3t63.5 -2t66.5 0t85.5 1l11 -18q-8 -14 -30 -51.5t-50.5 -87.5t-60 -109.5t-60.5 -118.5q10 -20 37.5 -73.5t58.5 -114t58.5 -114.5t39.5 -77l-8 -24h-276l-17 10q-8 14 -27.5 48t-44 76 t-51 86t-48 80.5t-34.5 60.5zM451 602q18 33 45.5 79t56.5 96t56.5 100.5t47.5 89.5l17 14h305l12 -18q-53 -88 -83.5 -141.5t-51 -90.5t-37 -68.5t-39.5 -76.5l191 -373l-8 -25q-37 2 -74 3.5t-74 1.5q-35 0 -68.5 -1.5t-68.5 -3.5l-14 9q-20 39 -36 68.5t-37.5 68.5 t-53 95t-84.5 151z" />
<glyph unicode="&#xac;" horiz-adv-x="1366" d="M0 465v260h1104h260v-725h-260v465h-1104z" />
<glyph unicode="&#xad;" horiz-adv-x="811" d="M70 436l12 287l12 14h639l8 -10l-14 -287l-12 -14h-637z" />
<glyph unicode="&#xae;" horiz-adv-x="1705" d="M123 723q0 158 58.5 291t158.5 230t232.5 152.5t279.5 55.5q158 0 292 -58.5t232.5 -158.5t152.5 -233t54 -283q0 -152 -57.5 -284t-155.5 -230.5t-231 -154.5t-287 -56q-143 0 -274.5 53t-232.5 149.5t-161.5 230.5t-60.5 296zM188 723q0 -139 52.5 -261t142.5 -211 t211 -140.5t258 -51.5q141 0 262 52.5t210 141.5t141.5 210t52.5 258q0 135 -49.5 257t-138.5 212t-211 143t-263 53t-263 -52t-212 -142t-141.5 -211t-51.5 -258zM512 262v938h334q59 0 116.5 -3t104.5 -19q45 -14 76 -40t51 -57.5t29.5 -66.5t9.5 -66q0 -53 -17.5 -90 t-42 -61.5t-53 -40t-51.5 -25.5q20 -14 36.5 -26.5t29 -31t21.5 -47t18 -71.5q14 -96 29.5 -162.5t49.5 -130.5h-258q-23 43 -32 92t-19 111q-10 66 -17 103.5t-23.5 56t-46.5 23.5t-81 7h-39v-393h-225zM737 834h99q51 0 80.5 3t50.5 15q23 12 32 35.5t9 46.5t-10.5 47.5 t-39.5 36.5q-10 4 -19 6t-25.5 3t-42 1h-66.5h-68v-194z" />
<glyph unicode="&#xaf;" horiz-adv-x="598" d="M-63 1266q2 29 4 49t4 41.5t3 48.5t3 63l12 13q109 -2 214.5 -2h213.5q92 0 149.5 1t110.5 3l11 -13q-4 -37 -5.5 -61.5t-3.5 -43.5t-3 -42t-3 -55l-12 -15q-41 0 -69.5 1t-74 1h-118h-199.5h-98.5t-128.5 -2z" />
<glyph unicode="&#xb0;" horiz-adv-x="724" d="M10 1178q0 72 26.5 135t74 111.5t112 77t139.5 28.5q78 0 143.5 -30t113 -79t73 -112.5t25.5 -130.5q0 -72 -27.5 -137.5t-76 -113.5t-113 -77t-140.5 -27q-68 0 -131 27t-111 73t-78 111.5t-30 143.5zM250 1178q0 -57 35.5 -86t74.5 -29q31 0 53.5 11t37 28.5t20.5 36 t6 35.5q0 47 -33.5 82.5t-81.5 35.5q-49 0 -80.5 -33.5t-31.5 -80.5z" />
<glyph unicode="&#xb1;" horiz-adv-x="1366" d="M86 0v260h1194v-260h-1194zM86 760v260h469v426h260v-426h465v-260h-465v-428h-260v428h-469z" />
<glyph unicode="&#xb2;" horiz-adv-x="811" d="M29 498q37 45 87 110.5t97 128t85 113.5t50 70q18 27 38 63.5t20 77.5q0 4 -2.5 25.5t-16.5 45t-43 43t-84 19.5q-61 0 -104 -22.5t-86 -55.5l-13 10q0 10 1 40t2 63t1 62.5v41.5l9 8q70 29 138 47.5t144 18.5q82 0 145.5 -23.5t106.5 -63.5t64.5 -95.5t21.5 -116.5 q0 -47 -10 -86t-26.5 -73t-36 -60.5t-37.5 -48.5q-6 -8 -22.5 -27.5t-35 -43.5t-35 -44t-22.5 -29q49 0 82 1t58.5 2t50 2t59.5 4l8 -9q-2 -33 -4 -55.5t-3 -42.5t-2 -44t-1 -56l-11 -15q-29 0 -47 1t-33.5 1h-28.5h-34q-29 0 -102.5 -1t-157.5 -2t-160 -2t-106 -1z" />
<glyph unicode="&#xb3;" horiz-adv-x="811" d="M72 1184q2 33 3 55.5t2 41.5t2 39.5t1 51.5l10 12q82 -2 136.5 -2h109.5q98 0 175 1t171 6l8 -15q-25 -49 -42 -83t-33.5 -67.5t-35 -73.5t-47.5 -99q57 -10 96.5 -36t61 -61.5t30.5 -74.5t9 -76q0 -10 -2 -40t-13.5 -68t-36 -79t-67.5 -75.5t-108.5 -57t-161.5 -22.5 q-94 0 -156.5 16.5t-97.5 28.5l-6 10q2 37 3 59.5t1 43v41v55.5l12 6q43 -31 86 -50.5t97 -19.5q63 0 108 34t45 99q0 66 -43 96.5t-90 30.5q-25 0 -41 -6t-29 -12l-8 8q18 45 31.5 76t26 59.5t25.5 62.5t32 83q-66 -2 -128.5 -3t-127.5 -5z" />
<glyph unicode="&#xb4;" horiz-adv-x="598" d="M41 1262q14 31 27.5 59.5t27 66t29.5 92t39 138.5l10 10l373 8l8 -14l-229 -362l-13 -9l-264 -4z" />
<glyph unicode="&#xb6;" horiz-adv-x="1366" d="M166 1006q0 27 4 64.5t17.5 81.5t38 89t67.5 86q45 43 89 66.5t87 35t83 14.5t79 3h512v-160h-74v-1628h-172v1628h-242v-1628h-172v940q-45 12 -86 27.5t-88 52.5q-80 63 -111.5 154.5t-31.5 173.5z" />
<glyph unicode="&#xb7;" horiz-adv-x="555" d="M70 745l8 13l395 4l8 -8v-334l-8 -8l-387 -9l-8 13z" />
<glyph unicode="&#xb8;" horiz-adv-x="598" d="M82 -428l162 334l16 10h244l12 -12l-108 -334l-15 -10h-299z" />
<glyph unicode="&#xb9;" horiz-adv-x="811" d="M160 1194q2 33 3 53.5t3 36.5t3 31.5t3 38.5l8 8q63 8 110.5 14t87.5 11.5t80 11.5t89 12l10 -8q0 -27 -1 -95.5t-1 -146.5t-1 -148.5t-1 -99.5q0 -154 2 -250t6 -171l-6 -9h-72.5h-57.5t-60.5 -1t-81.5 -3l-7 8q4 178 7.5 353.5t1.5 353.5q-27 -2 -43.5 -3t-28.5 -1 t-21.5 -1t-23.5 -3z" />
<glyph unicode="&#xba;" horiz-adv-x="811" d="M39 1079q0 86 22.5 168t88.5 135q35 27 72.5 42.5t72.5 23.5t64.5 9t48.5 1q92 0 154.5 -21.5t103.5 -56.5q66 -55 86 -134t20 -161q0 -68 -10 -116.5t-24.5 -81.5t-32 -54.5t-31.5 -33.5q-35 -31 -72 -49.5t-72.5 -26.5t-67.5 -10t-52 -2q-199 0 -285 94t-86 274z M315 1077q0 -31 2 -66.5t10.5 -65.5t27 -49t48.5 -19q53 0 74 54t19 165q-2 92 -19.5 145t-70.5 53q-31 0 -48.5 -17t-26.5 -48t-12.5 -70t-3.5 -82z" />
<glyph unicode="&#xbb;" horiz-adv-x="1024" d="M33 211q33 53 63.5 107.5t63.5 111.5q16 29 26.5 48.5t19.5 35.5t17 32.5t19 41.5q-18 39 -43 88t-50.5 99t-51 98.5t-44.5 87.5l8 24q37 -2 74 -3t74 -1q35 0 67.5 1t67.5 3l16 -8q23 -45 76 -141.5t133 -241.5l2 -23q-20 -35 -47.5 -82t-57.5 -98t-56.5 -100t-44.5 -84 l-15 -14h-305zM483 211q39 61 94.5 159.5t108.5 209.5q-10 20 -37.5 72.5t-59.5 112.5t-59.5 114.5t-37.5 76.5l8 25h276l17 -10l219 -375v-23q-20 -37 -50 -87t-60 -102t-56.5 -101.5t-42.5 -79.5l-15 -15q-45 2 -77.5 3.5t-63.5 2.5t-65.5 0t-83.5 -1z" />
<glyph unicode="&#xbc;" horiz-adv-x="1878" d="M158 1194q2 33 3 53.5t3 35.5t3 30.5t3 40.5l8 8q63 8 110.5 14t87.5 11.5t80 11.5t89 12l10 -8q0 -27 -1 -95.5t-1 -146.5t-1 -148.5t-1 -99.5q0 -156 2 -252t6 -169l-6 -9h-72.5t-57.5 -1t-60.5 -2t-81.5 -3l-7 10q4 178 7.5 352.5t1.5 352.5q-53 -2 -71.5 -3t-45.5 -3 zM530 18l22.5 52.5t38 88.5t46.5 106.5t47.5 107.5t39.5 92t26 57q53 123 105 243t106 243q31 72 50 116.5t34.5 81.5t30 73t34.5 91l12 14h65.5h48t44.5 1t51 1l6 -20q-156 -334 -300 -667.5t-273 -678.5l-14 -14q-25 0 -46.5 -1t-44 -2t-51 -2t-65.5 -1zM1114 176v143 l31 62q51 102 81.5 166.5t54.5 116t46.5 102.5t56.5 131l13 10q53 0 87 1t64.5 1t66.5 1t93 1l12 -8q-2 -47 -3 -93t-1 -107.5v-146.5v-206q35 2 51.5 2t44.5 2l9 -8q-4 -59 -5 -92t-4 -78l-10 -10h-86q2 -41 3 -80t3 -80l-10 -8h-63.5t-53 -1t-57.5 -2t-76 -3l-8 8 q0 23 1 40t2 35.5t2 39t3 51.5h-342zM1331 350h137q2 59 3.5 103.5t2.5 84.5t2 83t1 102q-14 -35 -23.5 -58.5l-19 -47t-18.5 -50t-23 -63.5z" />
<glyph unicode="&#xbd;" horiz-adv-x="1878" d="M158 1194q2 33 3 53.5t3 35.5t3 30.5t3 40.5l8 8q63 8 110.5 14t87.5 11.5t80 11.5t89 12l10 -8q0 -27 -1 -95.5t-1 -146.5t-1 -148.5t-1 -99.5q0 -154 2 -251t6 -170l-6 -9h-72.5t-57.5 -1t-60.5 -2t-81.5 -3l-7 10q4 178 7.5 352.5t1.5 354.5q-53 -4 -71.5 -5t-45.5 -3 zM461 18l22.5 52.5t38 88.5t46 106.5t47 107.5t40 92t25.5 57q53 123 105.5 243t105.5 243q31 72 50.5 116.5t34.5 81.5t29.5 74t34.5 92l15 12h63.5h48t44 1t51.5 1l8 -20q-156 -334 -301.5 -667.5t-274.5 -678.5l-14 -14q-25 0 -46.5 -1t-44 -2t-51 -2t-65.5 -1zM1094 14 q37 45 88 110.5t98 128t85 114t50 69.5q18 27 38 64t20 78q0 4 -2.5 25.5t-16.5 45t-43 43t-84 19.5q-61 0 -104 -22.5t-86 -55.5l-13 10v40t1 62.5t2 62.5t1 42l7 8q72 29 140 47.5t144 18.5q82 0 145.5 -23.5t106.5 -63.5t64.5 -95.5t21.5 -116.5q0 -47 -10 -86t-26.5 -73 t-36 -60.5t-37.5 -49.5q-6 -8 -22.5 -27.5t-35 -43t-35 -44t-22.5 -28.5q49 0 82 1t58.5 2t50 2t59.5 3l8 -8q-2 -33 -4 -55.5t-3 -43t-2 -44t-1 -56.5l-11 -14q-29 0 -47 1t-33.5 1h-29.5h-35h-58t-92.5 -1t-109.5 -2t-109.5 -2t-94.5 -1h-62z" />
<glyph unicode="&#xbe;" horiz-adv-x="1878" d="M72 1184q2 33 3 55.5t2 41.5t2 39.5t1 51.5l10 12q82 -2 136.5 -2h109.5q98 0 175 1t171 6l8 -15q-25 -49 -42 -83t-33.5 -67.5t-35 -73.5t-47.5 -99q57 -10 96.5 -36t61 -61.5t30.5 -74.5t9 -76q0 -10 -2 -40t-13.5 -68t-36 -79t-67.5 -75.5t-108.5 -57t-161.5 -22.5 q-94 0 -156.5 16.5t-97.5 28.5l-6 10q2 37 3 59.5t1 43v41v55.5l12 6q43 -31 86 -50.5t97 -19.5q63 0 108 34t45 99q0 66 -43 96.5t-90 30.5q-25 0 -41 -6t-29 -12l-8 8q18 45 31.5 76t26 59.5t25.5 62.5t32 83q-66 -2 -128.5 -3t-127.5 -5zM543 18l22.5 52.5t38 88.5 t46 106.5t47 107.5t40 92t25.5 57q53 123 105.5 243t105.5 243q31 72 50 116.5t34.5 81.5t30 73t34.5 91l13 14h65.5h48h44h50.5l7 -18q-156 -334 -300.5 -667.5t-273.5 -678.5l-14 -14q-25 0 -46.5 -1t-44 -2t-51 -2t-65.5 -1zM1116 176v143l31 62q51 102 82 166.5 t54.5 116t46 102.5t56.5 131l13 10h87h64.5t66.5 1t93 3l12 -10q-2 -45 -3 -92t-1 -108.5v-145.5v-205q35 2 50.5 2t43.5 2l9 -8q-4 -59 -5 -92t-4 -78l-10 -10h-86q2 -41 3 -80t3 -80l-10 -8h-63.5t-53 -1t-57.5 -2t-76 -3l-8 8q0 23 1 40t2 35.5t2 39t3 51.5h-340z M1333 350h137q2 59 3.5 103.5t2.5 84.5t2 83t1 102q-14 -35 -23.5 -59.5t-19 -47t-18.5 -49t-23 -63.5z" />
<glyph unicode="&#xbf;" horiz-adv-x="937" d="M10 389q0 98 37 188.5t94 170.5q4 4 29 35.5t53 68.5l45 59q14 20 22.5 33.5t12.5 26t6 27t4 34.5l13 17l358 8l10 -15q-2 -35 -6 -59.5t-14 -46t-27.5 -44t-44.5 -54.5l-51 -62q-43 -59 -85 -131t-42 -168q0 -51 17.5 -89t46 -62.5t65.5 -37t76 -12.5q74 0 132 29 t111 62l17 -17l-8 -284l-15 -19q-41 -14 -79.5 -27.5t-80.5 -22.5t-90.5 -14.5t-109.5 -5.5q-45 0 -98.5 4.5t-108.5 19.5t-106.5 45t-94.5 83t-65.5 120.5t-22.5 139.5zM307 1214l4 340l8 9l383 4l11 -15v-325l-15 -15q-41 2 -78.5 2h-78.5h-39q-92 0 -185 -6z" />
<glyph unicode="&#xc0;" horiz-adv-x="1409" d="M0 14l446 1422l13 10l520 6l14 -10l416 -1426l-14 -16h-211q-53 0 -105.5 -2t-105.5 -4l-15 10l-77 348h-400l-80 -344l-14 -8h-377zM373 1876l8 14h383l12 -6q12 -53 21.5 -90t18.5 -70.5t21.5 -71.5t30.5 -93l-10 -13h-240l-14 10zM557 647h254l-51 217l-68 310 q-10 -41 -17 -73t-16.5 -67t-20.5 -77t-28 -103z" />
<glyph unicode="&#xc1;" horiz-adv-x="1409" d="M0 14l446 1422l13 10l520 6l14 -10l416 -1426l-14 -16h-211q-53 0 -105.5 -2t-105.5 -4l-15 10l-77 348h-400l-80 -344l-14 -8h-377zM549 1556q14 35 30.5 77t32 85t27.5 85t20 77l11 8h379l6 -10l-248 -326l-12 -6h-238zM557 647h254l-51 217l-68 310q-10 -41 -17 -73 t-16.5 -67t-20.5 -77t-28 -103z" />
<glyph unicode="&#xc2;" horiz-adv-x="1409" d="M0 14l446 1422l13 10l520 6l14 -10l416 -1426l-14 -16h-211q-53 0 -105.5 -2t-105.5 -4l-15 10l-77 348h-400l-80 -344l-14 -8h-377zM299 1561q29 45 52.5 82.5t44 74.5t39 76t38.5 84l12 12h428l13 -10q25 -51 42 -86t34.5 -67.5t39 -68.5t54.5 -89l-9 -17l-321 -4 l-12 13l-64 147l-84 -147l-12 -13h-285zM557 647h254l-51 217l-68 310q-10 -41 -17 -73t-16.5 -67t-20.5 -77t-28 -103z" />
<glyph unicode="&#xc3;" horiz-adv-x="1409" d="M0 14l446 1422l13 10l520 6l14 -10l416 -1426l-14 -16h-211q-53 0 -105.5 -2t-105.5 -4l-15 10l-77 348h-400l-80 -344l-14 -8h-377zM332 1567v248l6 16q29 23 71 46.5t117 23.5q29 0 51.5 -4.5t45.5 -10.5l90 -33q37 -10 73.5 -20t69.5 -10q41 0 84 21.5t109 74.5l8 -6 l6 -271l-8 -16q-35 -29 -82 -56.5t-121 -27.5q-35 0 -63.5 7t-59.5 18l-65 24q-35 12 -69 21.5t-69 9.5q-39 0 -77.5 -14.5t-108.5 -44.5zM557 647h254l-51 217l-68 310q-10 -41 -17 -73t-16.5 -67t-20.5 -77t-28 -103z" />
<glyph unicode="&#xc4;" horiz-adv-x="1409" d="M0 14l446 1422l13 10l520 6l14 -10l416 -1426l-14 -16h-211q-53 0 -105.5 -2t-105.5 -4l-15 10l-77 348h-400l-80 -344l-14 -8h-377zM270 1556q2 41 3 76t1 72q0 39 -1 76t-1 73l9 15l331 4l9 -12l-5 -295l-10 -13l-327 -6zM557 647h254l-51 217l-68 310q-10 -41 -17 -73 t-16.5 -67t-20.5 -77t-28 -103zM788 1548q2 35 2.5 70t0.5 70v74.5t-3 88.5l9 13l321 10l10 -14l-4 -299l-10 -15l-315 -10z" />
<glyph unicode="&#xc5;" horiz-adv-x="1409" d="M0 14l446 1422l13 10l520 6l14 -10l416 -1426l-14 -16h-211q-53 0 -105.5 -2t-105.5 -4l-15 10l-77 348h-400l-80 -344l-14 -8h-377zM420 1751q0 111 71.5 183.5t200.5 72.5q125 0 197 -70t76 -176q4 -111 -67 -181.5t-206 -70.5t-203.5 69t-68.5 173zM557 647h254 l-51 217l-68 310q-10 -41 -17 -73t-16.5 -67t-20.5 -77t-28 -103zM616 1757q0 -51 20.5 -86t55.5 -35t56.5 36t19.5 95q-2 41 -18.5 77t-57.5 36q-23 0 -37 -11t-23 -29.5t-12.5 -40t-3.5 -42.5z" />
<glyph unicode="&#xc6;" horiz-adv-x="1878" d="M0 12q63 154 124.5 308.5t125.5 308.5q82 205 132 329.5t82 205.5t53.5 140.5t47.5 133.5l13 8h1200l14 -4l-16 -285l-11 -12h-456l-4 -258l421 4l13 -12l-17 -271l-14 -14h-405v-279q98 0 163.5 1t117.5 3.5t100.5 3.5t113.5 5l12 -11l-18 -305l-14 -12h-273.5h-206 t-186.5 -2t-215 -4l-14 12l8 371h-363l-116 -367l-17 -10q-61 0 -104 1t-83 0t-86 -3t-114 -4zM637 678h258l8 469h-94z" />
<glyph unicode="&#xc7;" horiz-adv-x="1236" d="M66 702q0 68 9 152t40 170q47 135 124.5 222t170 138.5t194 72t193.5 20.5q143 0 233 -29t137 -49l9 -13q-4 -55 -7.5 -94t-5.5 -74.5t-3 -74.5t-3 -94l-14 -11q-8 6 -14.5 12.5l-12.5 12.5q-49 41 -112.5 59.5t-122.5 18.5q-55 0 -108.5 -15.5t-96.5 -48.5 q-55 -41 -86 -94t-45.5 -105.5t-16.5 -95.5t-2 -63q0 -199 101.5 -306.5t273.5 -107.5q53 0 96 10.5t76 24.5t57.5 29.5t40.5 27.5l17 -8q-4 -57 -6 -98t-3 -78t-2 -76t-3 -94l-9 -14q-59 -18 -147 -39t-230 -21q-195 0 -332 60.5t-224 162t-126.5 233.5t-39.5 277z M508 -426q27 53 46 92t36.5 74t36 74t43.5 92l16 12q37 0 62.5 -1t51 -1h55.5h75l12 -12q-18 -57 -32.5 -98.5t-26 -77t-23.5 -71.5t-26 -85l-13 -12q-51 0 -86 1t-66.5 1t-65.5 -1t-83 -1z" />
<glyph unicode="&#xc8;" horiz-adv-x="1150" d="M104 1434l13 12h921l11 -8l-15 -283l-12 -10h-473v-260l448 8l13 -14l-17 -269l-14 -12h-426v-283q119 0 240.5 3.5t279.5 9.5l12 -13l-20 -303l-18 -12h-170t-107 1t-65.5 1h-47.5q-84 0 -151.5 -1t-129 -2t-121.5 -2t-134 -3l-10 14q2 88 4 160t3 144.5t1 152.5v184 q0 184 -1 300t-2 198t-4 145.5t-8 141.5zM244 1876l8 14h383l12 -6q12 -53 21.5 -90t18.5 -70.5t21.5 -71.5t30.5 -93l-10 -13h-240l-14 10z" />
<glyph unicode="&#xc9;" horiz-adv-x="1150" d="M104 1434l13 12h921l11 -8l-15 -283l-12 -10h-473v-260l448 8l13 -14l-17 -269l-14 -12h-426v-283q119 0 240.5 3.5t279.5 9.5l12 -13l-20 -303l-18 -12h-170t-107 1t-65.5 1h-47.5q-84 0 -151.5 -1t-129 -2t-121.5 -2t-134 -3l-10 14q2 88 4 160t3 144.5t1 152.5v184 q0 184 -1 300t-2 198t-4 145.5t-8 141.5zM420 1556q14 35 30.5 77t32 85t27.5 85t20 77l11 8h379l6 -10l-248 -326l-12 -6h-238z" />
<glyph unicode="&#xca;" horiz-adv-x="1150" d="M104 1434l13 12h921l11 -8l-15 -283l-12 -10h-473v-260l448 8l13 -14l-17 -269l-14 -12h-426v-283q119 0 240.5 3.5t279.5 9.5l12 -13l-20 -303l-18 -12h-170t-107 1t-65.5 1h-47.5q-84 0 -151.5 -1t-129 -2t-121.5 -2t-134 -3l-10 14q2 88 4 160t3 144.5t1 152.5v184 q0 184 -1 300t-2 198t-4 145.5t-8 141.5zM170 1561q29 45 52.5 82.5t44 74.5t39 76t38.5 84l12 12h428l13 -10q25 -51 42 -86t34.5 -67.5t39 -68.5t54.5 -89l-9 -17l-321 -4l-12 13l-64 147l-84 -147l-12 -13h-285z" />
<glyph unicode="&#xcb;" horiz-adv-x="1150" d="M104 1434l13 12h921l11 -8l-15 -283l-12 -10h-473v-260l448 8l13 -14l-17 -269l-14 -12h-426v-283q119 0 240.5 3.5t279.5 9.5l12 -13l-20 -303l-18 -12h-170t-107 1t-65.5 1h-47.5q-84 0 -151.5 -1t-129 -2t-121.5 -2t-134 -3l-10 14q2 88 4 160t3 144.5t1 152.5v184 q0 184 -1 300t-2 198t-4 145.5t-8 141.5zM154 1556q2 41 3 76t1 72q0 39 -1 76t-1 73l8 15l332 4l8 -12l-4 -295l-11 -13l-327 -6zM672 1548q2 35 2 70v70v74.5t-2 88.5l8 13l321 10l11 -14l-4 -299l-11 -15l-315 -10z" />
<glyph unicode="&#xcc;" horiz-adv-x="681" d="M10 1876l8 14h383l13 -6q12 -53 21 -90t18.5 -70.5t21.5 -71.5t31 -93l-10 -13h-240l-14 10zM109 1436l10 10q76 0 126 -1t96 0t96 2t126 5l8 -10q-2 -78 -4 -141.5t-3 -128t-2 -135t-1 -158.5q0 -217 4 -434.5t10 -434.5l-8 -10q-74 0 -124 1t-96 0t-98 -3t-128 -4 l-8 10q0 139 1 275.5t3 273.5q2 88 3 175t1 175q0 68 -1 128.5t-2 123t-4 131t-5 150.5z" />
<glyph unicode="&#xcd;" horiz-adv-x="681" d="M109 1436l10 10q76 0 126 -1t96 0t96 2t126 5l8 -10q-2 -78 -4 -141.5t-3 -128t-2 -135t-1 -158.5q0 -217 4 -434.5t10 -434.5l-8 -10q-74 0 -124 1t-96 0t-98 -3t-128 -4l-8 10q0 139 1 275.5t3 273.5q2 88 3 175t1 175q0 68 -1 128.5t-2 123t-4 131t-5 150.5zM186 1556 q14 35 30.5 77t32 85t28 85t20.5 77l10 8h379l6 -10l-248 -326l-12 -6h-237z" />
<glyph unicode="&#xce;" horiz-adv-x="681" d="M-63 1561q29 45 52 82.5t43.5 74.5t39 76t39.5 84l12 12h428l12 -10q25 -51 42.5 -86t34.5 -67.5t38.5 -68.5t54.5 -89l-8 -17l-322 -4l-12 13l-63 147l-84 -147l-13 -13h-284zM109 1436l10 10q76 0 126 -1t96 0t96 2t126 5l8 -10q-2 -78 -4 -141.5t-3 -128t-2 -135 t-1 -158.5q0 -217 4 -434.5t10 -434.5l-8 -10q-74 0 -124 1t-96 0t-98 -3t-128 -4l-8 10q0 139 1 275.5t3 273.5q2 88 3 175t1 175q0 68 -1 128.5t-2 123t-4 131t-5 150.5z" />
<glyph unicode="&#xcf;" horiz-adv-x="681" d="M-80 1556q2 41 3 76t1 72q0 39 -1 76t-1 73l8 15l332 4l8 -12l-4 -295l-10 -13l-328 -6zM109 1436l10 10q76 0 126 -1t96 0t96 2t126 5l8 -10q-2 -78 -4 -141.5t-3 -128t-2 -135t-1 -158.5q0 -217 4 -434.5t10 -434.5l-8 -10q-74 0 -124 1t-96 0t-98 -3t-128 -4l-8 10 q0 139 1 275.5t3 273.5q2 88 3 175t1 175q0 68 -1 128.5t-2 123t-4 131t-5 150.5zM438 1548q2 35 2 70v70v74.5t-2 88.5l8 13l322 10l10 -14l-4 -299l-10 -15l-315 -10z" />
<glyph unicode="&#xd0;" horiz-adv-x="1449" d="M-2 662v174l12 12q45 -2 62.5 -2h46.5q-2 117 -3 199.5t-2 149.5t-3 123t-5 118l13 10h467h102q53 0 119.5 -4t138.5 -19.5t141.5 -48.5t129.5 -94q29 -29 58.5 -74t54 -106.5t39.5 -143.5t15 -184q0 -207 -52 -345t-122 -218q-66 -76 -143.5 -118t-155 -62.5 t-149.5 -24.5t-127 -4l-133 -2h-100.5t-84.5 -1t-86 -2t-102 -1l-12 16q0 29 1 55.5t1 55.5q2 266 0 536q-16 0 -27.5 -1l-23 -2t-24.5 -2t-34 -1zM553 854q63 2 109.5 3t111.5 5l10 -12q-2 -29 -3 -48.5t-1 -36.5t-1 -37.5t-3 -51.5l-10 -12q-35 0 -59.5 1t-47 1t-46 -1 t-58.5 -1l4 -342q51 -2 99.5 0t91.5 20q51 20 84.5 60t54 93.5t29 118t8.5 134.5q0 133 -26 209.5t-65.5 115.5t-89 49.5t-96.5 10.5q-18 0 -38.5 -1.5t-57.5 -3.5v-274z" />
<glyph unicode="&#xd1;" horiz-adv-x="1492" d="M102 1434l13 12h182l178 6l12 -6q35 -51 59.5 -87t49.5 -70t52.5 -71.5t68.5 -93.5q43 -59 75.5 -103t66.5 -91t75 -104.5t100 -143.5v236.5t-1 171t-3 156.5t-6 190l8 10l334 6l12 -8v-102.5v-158.5t-1 -188.5t-1 -189.5v-162v-108v-133.5t1 -118t2 -123t3 -148.5 l-12 -12l-287 -6l-16 8q-41 57 -67.5 94t-49 69t-48 67.5t-66.5 91.5q-16 25 -42 59.5t-56.5 74.5t-63.5 84t-64 87q-74 98 -155 211l28 -828l-10 -12h-97h-76t-75 -2t-96 -4l-12 10q2 53 3 96t2 83t1 81v88q0 272 -4 540.5t-17 541.5zM375 1567v248l6 16q29 23 71 46.5 t117 23.5q29 0 51.5 -4.5t45.5 -10.5l90 -33q37 -10 73.5 -20t69.5 -10q41 0 84 21.5t109 74.5l8 -6l6 -271l-8 -16q-35 -29 -82 -56.5t-121 -27.5q-35 0 -63.5 7t-59.5 18l-65 24q-35 12 -69 21.5t-69 9.5q-39 0 -77.5 -14.5t-108.5 -44.5z" />
<glyph unicode="&#xd2;" horiz-adv-x="1492" d="M66 702q0 127 20 251t86 233q33 55 81 107.5t117.5 94.5t162 66.5t212.5 24.5q49 0 109.5 -6.5t124 -23.5t125 -48t115.5 -80q41 -41 77.5 -92t64.5 -121t45 -160t21 -207q0 -43 -2 -101t-12 -122.5t-30.5 -131.5t-53.5 -124q-55 -94 -130 -151.5t-154.5 -88t-159.5 -41 t-146 -10.5q-330 0 -501.5 188.5t-171.5 542.5zM416 1876l8 14h383l12 -6q12 -53 21.5 -90t18.5 -70.5t21.5 -71.5t30.5 -93l-10 -13h-239l-15 10zM516 713q0 -49 5 -122t27.5 -141.5t69 -116.5t127.5 -48q80 0 127.5 46t71 114.5t28.5 145.5t5 138q0 88 -10.5 168 t-36 140.5t-68.5 96t-108 35.5q-72 0 -118 -34.5t-72.5 -96t-37 -145.5t-10.5 -180z" />
<glyph unicode="&#xd3;" horiz-adv-x="1492" d="M66 702q0 127 20 251t86 233q33 55 81 107.5t117.5 94.5t162 66.5t212.5 24.5q49 0 109.5 -6.5t124 -23.5t125 -48t115.5 -80q41 -41 77.5 -92t64.5 -121t45 -160t21 -207q0 -43 -2 -101t-12 -122.5t-30.5 -131.5t-53.5 -124q-55 -94 -130 -151.5t-154.5 -88t-159.5 -41 t-146 -10.5q-330 0 -501.5 188.5t-171.5 542.5zM516 713q0 -49 5 -122t27.5 -141.5t69 -116.5t127.5 -48q80 0 127.5 46t71 114.5t28.5 145.5t5 138q0 88 -10.5 168t-36 140.5t-68.5 96t-108 35.5q-72 0 -118 -34.5t-72.5 -96t-37 -145.5t-10.5 -180zM592 1556 q14 35 30.5 77t32 85t27.5 85t20 77l11 8h379l6 -10l-248 -326l-12 -6h-238z" />
<glyph unicode="&#xd4;" horiz-adv-x="1492" d="M66 702q0 127 20 251t86 233q33 55 81 107.5t117.5 94.5t162 66.5t212.5 24.5q49 0 109.5 -6.5t124 -23.5t125 -48t115.5 -80q41 -41 77.5 -92t64.5 -121t45 -160t21 -207q0 -43 -2 -101t-12 -122.5t-30.5 -131.5t-53.5 -124q-55 -94 -130 -151.5t-154.5 -88t-159.5 -41 t-146 -10.5q-330 0 -501.5 188.5t-171.5 542.5zM342 1561q29 45 52.5 82.5t44 74.5t39 76t38.5 84l12 12h428l13 -10q25 -51 42 -86t34.5 -67.5t39 -68.5t54.5 -89l-9 -17l-321 -4l-12 13l-64 147l-84 -147l-12 -13h-285zM516 713q0 -49 5 -122t27.5 -141.5t69 -116.5 t127.5 -48q80 0 127.5 46t71 114.5t28.5 145.5t5 138q0 88 -10.5 168t-36 140.5t-68.5 96t-108 35.5q-72 0 -118 -34.5t-72.5 -96t-37 -145.5t-10.5 -180z" />
<glyph unicode="&#xd5;" horiz-adv-x="1492" d="M66 702q0 127 20 251t86 233q33 55 81 107.5t117.5 94.5t162 66.5t212.5 24.5q49 0 109.5 -6.5t124 -23.5t125 -48t115.5 -80q41 -41 77.5 -92t64.5 -121t45 -160t21 -207q0 -43 -2 -101t-12 -122.5t-30.5 -131.5t-53.5 -124q-55 -94 -130 -151.5t-154.5 -88t-159.5 -41 t-146 -10.5q-330 0 -501.5 188.5t-171.5 542.5zM375 1567v248l6 16q29 23 71 46.5t117 23.5q29 0 51.5 -4.5t45.5 -10.5l90 -33q37 -10 73.5 -20t69.5 -10q41 0 84 21.5t109 74.5l8 -6l6 -271l-8 -16q-35 -29 -82 -56.5t-121 -27.5q-35 0 -63.5 7t-59.5 18l-65 24 q-35 12 -69 21.5t-69 9.5q-39 0 -77.5 -14.5t-108.5 -44.5zM516 713q0 -49 5 -122t27.5 -141.5t69 -116.5t127.5 -48q80 0 127.5 46t71 114.5t28.5 145.5t5 138q0 88 -10.5 168t-36 140.5t-68.5 96t-108 35.5q-72 0 -118 -34.5t-72.5 -96t-37 -145.5t-10.5 -180z" />
<glyph unicode="&#xd6;" horiz-adv-x="1492" d="M66 702q0 127 20 251t86 233q33 55 81 107.5t117.5 94.5t162 66.5t212.5 24.5q49 0 109.5 -6.5t124 -23.5t125 -48t115.5 -80q41 -41 77.5 -92t64.5 -121t45 -160t21 -207q0 -43 -2 -101t-12 -122.5t-30.5 -131.5t-53.5 -124q-55 -94 -130 -151.5t-154.5 -88t-159.5 -41 t-146 -10.5q-330 0 -501.5 188.5t-171.5 542.5zM326 1556q2 41 3 76t1 72q0 39 -1 76t-1 73l8 15l332 4l8 -12l-4 -295l-10 -13l-328 -6zM516 713q0 -49 5 -122t27.5 -141.5t69 -116.5t127.5 -48q80 0 127.5 46t71 114.5t28.5 145.5t5 138q0 88 -10.5 168t-36 140.5 t-68.5 96t-108 35.5q-72 0 -118 -34.5t-72.5 -96t-37 -145.5t-10.5 -180zM844 1548q2 35 2 70v70v74.5t-2 88.5l8 13l322 10l10 -14l-4 -299l-11 -15l-315 -10z" />
<glyph unicode="&#xd7;" horiz-adv-x="1366" d="M125 225l373 371l-373 375l184 180l373 -371l375 371l182 -180l-371 -375l371 -371l-182 -186l-375 373l-373 -373z" />
<glyph unicode="&#xd8;" horiz-adv-x="1492" d="M-12 106q33 31 53 50.5t38.5 37t36 36t44.5 44.5q-16 33 -33.5 69t-31 84t-21.5 112.5t-8 156.5q0 80 8 147.5t18 125.5q53 254 219 381t432 127q96 0 168 -13.5t123 -34t87 -43t63 -40.5q49 47 82.5 84.5t60.5 68.5l19 2l135 -123l2 -20l-166 -166q18 -37 37.5 -78 t36 -94t26.5 -122t10 -157q0 -117 -17 -230.5t-62 -209.5q-78 -162 -231.5 -247t-364.5 -85q-98 0 -171 14.5t-127.5 37t-94.5 48t-70 48.5l-142 -158l-22 -4l-135 129zM489 733q0 -29 1.5 -56.5t3.5 -55.5l442 454q-6 12 -19.5 32.5t-35 39t-53 32t-76.5 13.5 q-55 0 -93 -18.5t-63 -43t-39 -51t-20 -41.5q-10 -29 -19.5 -66.5t-15.5 -78.5t-9.5 -83t-3.5 -77zM541 399q14 -23 30.5 -48t40 -45.5t57 -34t83.5 -13.5q88 0 139 54.5t75.5 127t31 145t6.5 109.5q0 41 -3.5 82t-7.5 84z" />
<glyph unicode="&#xd9;" horiz-adv-x="1409" d="M90 1436l8 10h121t95 1t98.5 2t126.5 3l10 -10q-4 -205 -8 -406.5t-4 -406.5q0 -59 3 -121t19 -109q20 -59 63.5 -93t114.5 -34q29 0 68 9.5t74 44.5q47 47 55 124.5t8 190.5q0 135 -1 244.5t-3 203t-5 178.5t-5 171l10 8l375 6l12 -8l-10 -844l-2 -78 q-4 -57 -9.5 -117.5t-23.5 -120t-53 -113.5t-99 -97q-66 -47 -172 -76t-247 -29q-55 0 -124 6.5t-138.5 25.5t-134 54t-109.5 92q-37 45 -56.5 95.5t-30 102.5t-13.5 103.5t-5 100.5v63v261.5t-1 187.5t-3 169t-4 206zM373 1876l8 14h383l12 -6q12 -53 21.5 -90t18.5 -70.5 t21.5 -71.5t30.5 -93l-10 -13h-240l-14 10z" />
<glyph unicode="&#xda;" horiz-adv-x="1409" d="M90 1436l8 10h121t95 1t98.5 2t126.5 3l10 -10q-4 -205 -8 -406.5t-4 -406.5q0 -59 3 -121t19 -109q20 -59 63.5 -93t114.5 -34q29 0 68 9.5t74 44.5q47 47 55 124.5t8 190.5q0 135 -1 244.5t-3 203t-5 178.5t-5 171l10 8l375 6l12 -8l-10 -844l-2 -78 q-4 -57 -9.5 -117.5t-23.5 -120t-53 -113.5t-99 -97q-66 -47 -172 -76t-247 -29q-55 0 -124 6.5t-138.5 25.5t-134 54t-109.5 92q-37 45 -56.5 95.5t-30 102.5t-13.5 103.5t-5 100.5v63v261.5t-1 187.5t-3 169t-4 206zM549 1556q14 35 30.5 77t32 85t27.5 85t20 77l11 8h379 l6 -10l-248 -326l-12 -6h-238z" />
<glyph unicode="&#xdb;" horiz-adv-x="1409" d="M90 1436l8 10h121t95 1t98.5 2t126.5 3l10 -10q-4 -205 -8 -406.5t-4 -406.5q0 -59 3 -121t19 -109q20 -59 63.5 -93t114.5 -34q29 0 68 9.5t74 44.5q47 47 55 124.5t8 190.5q0 135 -1 244.5t-3 203t-5 178.5t-5 171l10 8l375 6l12 -8l-10 -844l-2 -78 q-4 -57 -9.5 -117.5t-23.5 -120t-53 -113.5t-99 -97q-66 -47 -172 -76t-247 -29q-55 0 -124 6.5t-138.5 25.5t-134 54t-109.5 92q-37 45 -56.5 95.5t-30 102.5t-13.5 103.5t-5 100.5v63v261.5t-1 187.5t-3 169t-4 206zM299 1561q29 45 52.5 82.5t44 74.5t39 76t38.5 84 l12 12h428l13 -10q25 -51 42 -86t34.5 -67.5t39 -68.5t54.5 -89l-9 -17l-321 -4l-12 13l-64 147l-84 -147l-12 -13h-285z" />
<glyph unicode="&#xdc;" horiz-adv-x="1409" d="M90 1436l8 10h121t95 1t98.5 2t126.5 3l10 -10q-4 -205 -8 -406.5t-4 -406.5q0 -59 3 -121t19 -109q20 -59 63.5 -93t114.5 -34q29 0 68 9.5t74 44.5q47 47 55 124.5t8 190.5q0 135 -1 244.5t-3 203t-5 178.5t-5 171l10 8l375 6l12 -8l-10 -844l-2 -78 q-4 -57 -9.5 -117.5t-23.5 -120t-53 -113.5t-99 -97q-66 -47 -172 -76t-247 -29q-55 0 -124 6.5t-138.5 25.5t-134 54t-109.5 92q-37 45 -56.5 95.5t-30 102.5t-13.5 103.5t-5 100.5v63v261.5t-1 187.5t-3 169t-4 206zM307 1556q2 41 3 76t1 72q0 39 -1 76t-1 73l8 15l332 4 l8 -12l-4 -295l-10 -13l-328 -6zM825 1548q2 35 2 70v70v74.5t-2 88.5l9 13l321 10l10 -14l-4 -299l-10 -15l-315 -10z" />
<glyph unicode="&#xdd;" horiz-adv-x="1366" d="M-12 1425l8 15q76 0 129 1t102 3t104.5 5t133.5 9l14 -8q20 -51 40 -92t45.5 -91t64.5 -121t98 -181q23 49 45.5 98t47 104.5t53 122t63.5 150.5l10 6l400 6l8 -10q-57 -98 -118.5 -207t-121 -217.5t-113 -208.5t-96.5 -182v-121v-161t1 -124t3 -104t4 -105l-16 -12h-119 t-94 -1t-96 -2t-125 -3l-10 12q2 66 5 120t4 110.5t2 122t1 155.5v107q-16 27 -54 92t-88.5 149t-104.5 177.5t-102 173t-83 138t-45 74.5zM526 1556q14 35 30.5 77t32 85t28 85t20.5 77l10 8h379l6 -10l-248 -326l-12 -6h-237z" />
<glyph unicode="&#xde;" horiz-adv-x="1323" d="M109 1436l8 10q74 0 122 -1t92 0t93 2t125 5l10 -10q0 -18 -1 -31.5t-1 -32t-1 -44t-1 -68.5h94q61 0 130 -1t136.5 -13.5t131 -38t114.5 -72.5q70 -66 99.5 -154t29.5 -184q0 -121 -44 -231.5t-140 -182.5q-55 -43 -119.5 -65.5t-135.5 -32.5t-145.5 -12.5t-150.5 -2.5 q0 -23 1 -60.5t2 -78.5t2 -76.5t1 -50.5l-8 -10q-72 0 -122 1t-95 0t-94 -3t-123 -4l-8 10q4 229 6 455.5t2 451.5q0 72 -1 134.5t-2 124t-3 126t-4 140.5zM550 773.5q-1 -99.5 1 -193.5q57 0 85 2t50 6q57 12 90 39.5t48.5 60.5t18.5 61.5t3 45.5q0 61 -22.5 97t-52.5 52.5 t-58.5 21.5t-40.5 5h-121q0 -98 -1 -197.5z" />
<glyph unicode="&#xdf;" horiz-adv-x="1323" d="M92 926v98v108.5t8.5 115t26.5 111.5t55 99q43 53 103.5 87t126 52.5t130 24.5t115.5 6q86 0 169 -11t159 -52q55 -29 89 -67t53.5 -76t25.5 -74.5t6 -63.5q0 -74 -26.5 -132t-59.5 -116l-37 -59q-12 -20 -21 -39.5t-9 -42.5q0 -29 18 -55.5t35 -44.5l61 -74 q25 -29 52.5 -63.5t51 -76.5t38 -92.5t14.5 -109.5q0 -68 -16.5 -119t-41 -88t-51 -61.5t-45.5 -38.5q-39 -27 -88 -43.5t-97 -25.5t-90 -12t-65 -3q-41 0 -74.5 4t-76.5 10l-17 12l-2 248l19 12q18 -10 34.5 -17t41.5 -7q57 0 96 33.5t39 89.5q0 43 -19.5 75.5t-42.5 63.5 l-118 141q-20 29 -36 56.5t-16 68.5q0 45 18.5 77t41.5 60l49 66q16 25 29.5 46.5t22.5 45t14.5 51t5.5 62.5q0 84 -33 135t-96 51q-59 0 -90 -26.5t-46.5 -63.5t-17.5 -74t-2 -57v-39q0 -39 2 -124t3 -192.5t3 -226t3 -228.5t2 -197t1 -130l-18 -14l-391 -6l-15 12 q2 111 3 218.5t1 215.5v107.5t-1 110t-3 123t-4 145.5z" />
<glyph unicode="&#xe0;" d="M45 330q0 127 60.5 203.5t153.5 119.5t202.5 63.5t208.5 33.5q2 18 1 37.5t-13.5 35t-39 24.5t-75.5 9q-109 0 -193 -26.5t-176 -63.5l-14 8l12 258l12 17q45 14 91.5 26t99.5 22.5t114.5 16.5t139.5 6q145 0 229 -27.5t131 -70.5q39 -35 58.5 -76t28.5 -91t9 -110.5 t-2 -136.5l-2 -131v-130t2 -100t5.5 -100.5t9.5 -130.5l-13 -16h-104h-83t-86 -2t-114 -4l-14 14v78q-66 -41 -137.5 -73.5t-159.5 -32.5q-74 0 -136.5 26.5t-108.5 72.5t-71.5 110.5t-25.5 140.5zM256 1622l8 12q61 0 103.5 -1t81 0t79.5 2t97 3l12 -10q16 -59 28.5 -100 t24.5 -78t29.5 -79t42.5 -101l-10 -15h-265l-16 9q-39 68 -65.5 112.5t-48 81.5t-45 74t-56.5 90zM436 383q0 -53 33 -81t84 -28q41 0 70.5 12.5t54.5 28.5v211q-37 -4 -79 -9t-78 -19.5t-60.5 -41t-24.5 -73.5z" />
<glyph unicode="&#xe1;" d="M45 330q0 127 60.5 203.5t153.5 119.5t202.5 63.5t208.5 33.5q2 18 1 37.5t-13.5 35t-39 24.5t-75.5 9q-109 0 -193 -26.5t-176 -63.5l-14 8l12 258l12 17q45 14 91.5 26t99.5 22.5t114.5 16.5t139.5 6q145 0 229 -27.5t131 -70.5q39 -35 58.5 -76t28.5 -91t9 -110.5 t-2 -136.5l-2 -131v-130t2 -100t5.5 -100.5t9.5 -130.5l-13 -16h-104h-83t-86 -2t-114 -4l-14 14v78q-66 -41 -137.5 -73.5t-159.5 -32.5q-74 0 -136.5 26.5t-108.5 72.5t-71.5 110.5t-25.5 140.5zM436 383q0 -53 33 -81t84 -28q41 0 70.5 12.5t54.5 28.5v211q-37 -4 -79 -9 t-78 -19.5t-60.5 -41t-24.5 -73.5zM438 1262q14 31 27.5 59.5t27 66t30 92t38.5 138.5l10 10l373 8l8 -14l-229 -362l-12 -9l-265 -4z" />
<glyph unicode="&#xe2;" d="M45 330q0 127 60.5 203.5t153.5 119.5t202.5 63.5t208.5 33.5q2 18 1 37.5t-13.5 35t-39 24.5t-75.5 9q-109 0 -193 -26.5t-176 -63.5l-14 8l12 258l12 17q45 14 91.5 26t99.5 22.5t114.5 16.5t139.5 6q145 0 229 -27.5t131 -70.5q39 -35 58.5 -76t28.5 -91t9 -110.5 t-2 -136.5l-2 -131v-130t2 -100t5.5 -100.5t9.5 -130.5l-13 -16h-104h-83t-86 -2t-114 -4l-14 14v78q-66 -41 -137.5 -73.5t-159.5 -32.5q-74 0 -136.5 26.5t-108.5 72.5t-71.5 110.5t-25.5 140.5zM215 1262q39 72 64.5 123l46 92t36 75.5t31.5 71.5l13 10h438l10 -10 q29 -68 48.5 -113t36.5 -82.5t35.5 -74.5t45.5 -88l-6 -9l-332 -12l-12 10l-74 220l-80 -213l-10 -9h-285zM436 383q0 -53 33 -81t84 -28q41 0 70.5 12.5t54.5 28.5v211q-37 -4 -79 -9t-78 -19.5t-60.5 -41t-24.5 -73.5z" />
<glyph unicode="&#xe3;" d="M45 330q0 127 60.5 203.5t153.5 119.5t202.5 63.5t208.5 33.5q2 18 1 37.5t-13.5 35t-39 24.5t-75.5 9q-109 0 -193 -26.5t-176 -63.5l-14 8l12 258l12 17q45 14 91.5 26t99.5 22.5t114.5 16.5t139.5 6q145 0 229 -27.5t131 -70.5q39 -35 58.5 -76t28.5 -91t9 -110.5 t-2 -136.5l-2 -131v-130t2 -100t5.5 -100.5t9.5 -130.5l-13 -16h-104h-83t-86 -2t-114 -4l-14 14v78q-66 -41 -137.5 -73.5t-159.5 -32.5q-74 0 -136.5 26.5t-108.5 72.5t-71.5 110.5t-25.5 140.5zM227 1278v246l6 16q25 20 70 45t125 25q27 0 46.5 -4t43.5 -11l90 -30 q35 -12 73 -22.5t71 -10.5q14 0 34.5 3t55.5 21q10 6 44 31t58 43l8 -8l6 -270l-8 -17q-35 -29 -82 -56.5t-120 -27.5q-35 0 -64 7.5t-59 17.5l-66 24q-35 12 -68.5 21.5t-68.5 9.5q-41 0 -81 -15.5t-105 -43.5zM436 383q0 -53 33 -81t84 -28q41 0 70.5 12.5t54.5 28.5v211 q-37 -4 -79 -9t-78 -19.5t-60.5 -41t-24.5 -73.5z" />
<glyph unicode="&#xe4;" d="M45 330q0 127 60.5 203.5t153.5 119.5t202.5 63.5t208.5 33.5q2 18 1 37.5t-13.5 35t-39 24.5t-75.5 9q-109 0 -193 -26.5t-176 -63.5l-14 8l12 258l12 17q45 14 91.5 26t99.5 22.5t114.5 16.5t139.5 6q145 0 229 -27.5t131 -70.5q39 -35 58.5 -76t28.5 -91t9 -110.5 t-2 -136.5l-2 -131v-130t2 -100t5.5 -100.5t9.5 -130.5l-13 -16h-104h-83t-86 -2t-114 -4l-14 14v78q-66 -41 -137.5 -73.5t-159.5 -32.5q-74 0 -136.5 26.5t-108.5 72.5t-71.5 110.5t-25.5 140.5zM178 1528l8 8q51 2 87 4l72 4t76 5t99 7l8 -8v-321l-12 -10l-319 -23 l-11 10zM436 383q0 -53 33 -81t84 -28q41 0 70.5 12.5t54.5 28.5v211q-37 -4 -79 -9t-78 -19.5t-60.5 -41t-24.5 -73.5zM659 1528l7 10l329 27l9 -6v-332l-9 -8l-315 -25l-12 8z" />
<glyph unicode="&#xe5;" d="M45 330q0 127 60.5 203.5t153.5 119.5t202.5 63.5t208.5 33.5q2 18 1 37.5t-13.5 35t-39 24.5t-75.5 9q-109 0 -193 -26.5t-176 -63.5l-14 8l12 258l12 17q45 14 91.5 26t99.5 22.5t114.5 16.5t139.5 6q145 0 229 -27.5t131 -70.5q39 -35 58.5 -76t28.5 -91t9 -110.5 t-2 -136.5l-2 -131v-130t2 -100t5.5 -100.5t9.5 -130.5l-13 -16h-104h-83t-86 -2t-114 -4l-14 14v78q-66 -41 -137.5 -73.5t-159.5 -32.5q-74 0 -136.5 26.5t-108.5 72.5t-71.5 110.5t-25.5 140.5zM317 1460q0 111 72 183.5t201 72.5q125 0 196.5 -70t75.5 -176 q4 -111 -66.5 -181t-205.5 -70t-204 68.5t-69 172.5zM436 383q0 -53 33 -81t84 -28q41 0 70.5 12.5t54.5 28.5v211q-37 -4 -79 -9t-78 -19.5t-60.5 -41t-24.5 -73.5zM514 1466q0 -51 20.5 -85.5t55.5 -34.5t56.5 36t19.5 95q-2 41 -18.5 76.5t-57.5 35.5q-23 0 -37 -11 t-23.5 -29.5t-12.5 -40t-3 -42.5z" />
<glyph unicode="&#xe6;" horiz-adv-x="1748" d="M33 338q0 27 8 71t33.5 92t75 90t133.5 64q78 20 175 24.5t189 2.5q0 45 -2 68.5t-12 42.5q-16 33 -56 54t-118 21q-43 0 -86 -6t-76 -14t-60.5 -18.5t-52 -21.5t-53.5 -26l-18 13l14 233l14 19q143 51 254 63t166 12q76 0 128 -10t87 -25.5t55.5 -34t36.5 -34.5 q31 20 60.5 39.5t67.5 34t87.5 22.5t120.5 8q115 0 200 -32.5t132 -75.5q55 -51 88 -118t49.5 -138.5t21.5 -144t9 -138.5l-14 -14h-652q8 -47 21.5 -82t64.5 -70q47 -31 100.5 -41t108.5 -10q84 0 165 17.5t153 58.5l14 -8l-10 -258l-13 -19q-66 -29 -155.5 -50.5 t-224.5 -21.5q-147 0 -226.5 24t-107.5 38q-41 20 -63.5 38.5t-45.5 39.5q-39 -29 -76.5 -54.5t-81 -44t-94.5 -30t-116 -11.5q-129 0 -211 37t-128 92.5t-62.5 118t-16.5 113.5zM410 362q0 -39 30.5 -72.5t96.5 -33.5q49 0 82.5 18.5t62.5 38.5q-10 25 -15 41.5t-9.5 31.5 t-7.5 31.5t-7 41.5q-16 2 -33.5 2h-34.5q-12 0 -39.5 -2t-55 -11.5t-49 -29t-21.5 -56.5zM1028 682h291q-2 25 -6 56.5t-17.5 60t-41 48t-74.5 19.5q-16 0 -33 -2t-33 -12q-53 -29 -67.5 -79t-18.5 -91z" />
<glyph unicode="&#xe7;" horiz-adv-x="980" d="M51 541q0 121 37 226t110.5 184t186.5 124t264 45q117 0 184.5 -19.5t112.5 -37.5l10 -12q-6 -43 -11 -74t-8 -60.5t-6 -63.5t-7 -83l-23 -6q-18 18 -59 47t-121 29q-104 0 -173 -75t-69 -210q0 -55 14.5 -107.5t47 -93.5t82 -65.5t120.5 -24.5q84 0 128 19.5t73 40.5 l14 -9q-2 -47 -3 -79.5t-2 -62.5t-3 -61.5t-4 -74.5l-10 -12q-41 -14 -114.5 -32t-184.5 -18q-156 0 -266.5 47.5t-181 126t-104.5 181t-34 211.5zM315 -426q27 53 46.5 92l37 74t36 74t42.5 92l17 12q37 0 62.5 -1t51 -1h55h74.5l13 -12q-18 -57 -33 -98.5t-26 -77 t-23.5 -71.5t-26.5 -85l-14 -12q-49 0 -84 1t-67 1t-65.5 -1t-82.5 -1z" />
<glyph unicode="&#xe8;" horiz-adv-x="1150" d="M49 547q0 158 50.5 267.5t130 177t178 98t194.5 30.5q78 0 165 -21.5t153 -74.5q70 -55 107.5 -126t55 -146.5t20.5 -147.5t3 -129l-14 -16l-635 -8q10 -47 25.5 -82t68.5 -68q23 -14 70 -28.5t118 -14.5q84 0 164 17.5t150 64.5l14 -10l-10 -262l-13 -19 q-37 -16 -69 -29q-29 -10 -113 -27.5t-203 -17.5q-41 0 -90 4.5t-101 14.5t-103.5 29.5t-96.5 50.5q-117 80 -168 204.5t-51 268.5zM231 1622l9 12q61 0 103 -1t81 0t80 2t96 3l12 -10q16 -59 28.5 -100t25 -78t30 -79t41.5 -101l-10 -15h-264l-17 9q-39 68 -65.5 112.5 t-48 81.5t-45 74t-56.5 90zM446 676l275 4q0 18 -4 50t-16.5 61.5t-39 51t-71.5 21.5q-8 0 -21.5 -1t-29.5 -9q-33 -14 -50.5 -36.5t-26.5 -47.5t-12.5 -50.5t-3.5 -43.5z" />
<glyph unicode="&#xe9;" horiz-adv-x="1150" d="M49 547q0 158 50.5 267.5t130 177t178 98t194.5 30.5q78 0 165 -21.5t153 -74.5q70 -55 107.5 -126t55 -146.5t20.5 -147.5t3 -129l-14 -16l-635 -8q10 -47 25.5 -82t68.5 -68q23 -14 70 -28.5t118 -14.5q84 0 164 17.5t150 64.5l14 -10l-10 -262l-13 -19 q-37 -16 -69 -29q-29 -10 -113 -27.5t-203 -17.5q-41 0 -90 4.5t-101 14.5t-103.5 29.5t-96.5 50.5q-117 80 -168 204.5t-51 268.5zM414 1262q14 31 27.5 59.5t26.5 66t29.5 92t39.5 138.5l10 10l373 8l8 -14l-230 -362l-12 -9l-264 -4zM446 676l275 4q0 18 -4 50 t-16.5 61.5t-39 51t-71.5 21.5q-8 0 -21.5 -1t-29.5 -9q-33 -14 -50.5 -36.5t-26.5 -47.5t-12.5 -50.5t-3.5 -43.5z" />
<glyph unicode="&#xea;" horiz-adv-x="1150" d="M49 547q0 158 50.5 267.5t130 177t178 98t194.5 30.5q78 0 165 -21.5t153 -74.5q70 -55 107.5 -126t55 -146.5t20.5 -147.5t3 -129l-14 -16l-635 -8q10 -47 25.5 -82t68.5 -68q23 -14 70 -28.5t118 -14.5q84 0 164 17.5t150 64.5l14 -10l-10 -262l-13 -19 q-37 -16 -69 -29q-29 -10 -113 -27.5t-203 -17.5q-41 0 -90 4.5t-101 14.5t-103.5 29.5t-96.5 50.5q-117 80 -168 204.5t-51 268.5zM190 1262q39 72 65 123t46.5 92t35.5 75.5t32 71.5l12 10h438l10 -10q29 -68 48.5 -113t37 -82.5t36 -74.5t44.5 -88l-6 -9l-332 -12l-12 10 l-74 220l-79 -213l-11 -9h-284zM446 676l275 4q0 18 -4 50t-16.5 61.5t-39 51t-71.5 21.5q-8 0 -21.5 -1t-29.5 -9q-33 -14 -50.5 -36.5t-26.5 -47.5t-12.5 -50.5t-3.5 -43.5z" />
<glyph unicode="&#xeb;" horiz-adv-x="1150" d="M49 547q0 158 50.5 267.5t130 177t178 98t194.5 30.5q78 0 165 -21.5t153 -74.5q70 -55 107.5 -126t55 -146.5t20.5 -147.5t3 -129l-14 -16l-635 -8q10 -47 25.5 -82t68.5 -68q23 -14 70 -28.5t118 -14.5q84 0 164 17.5t150 64.5l14 -10l-10 -262l-13 -19 q-37 -16 -69 -29q-29 -10 -113 -27.5t-203 -17.5q-41 0 -90 4.5t-101 14.5t-103.5 29.5t-96.5 50.5q-117 80 -168 204.5t-51 268.5zM156 1528l8 8q51 2 87 4t71.5 4t75.5 5t100 7l8 -8v-321l-12 -10l-320 -23l-10 10zM446 676l275 4q0 18 -4 50t-16.5 61.5t-39 51 t-71.5 21.5q-8 0 -21.5 -1t-29.5 -9q-33 -14 -50.5 -36.5t-26.5 -47.5t-12.5 -50.5t-3.5 -43.5zM637 1528l6 10l330 27l8 -6v-332l-8 -8l-316 -25l-12 8z" />
<glyph unicode="&#xec;" horiz-adv-x="641" d="M-25 1622l9 12q61 0 103 -1t81 0t80 2t96 3l12 -10q16 -59 28.5 -100t25 -78t30 -79t41.5 -101l-10 -15h-264l-17 9q-39 68 -65.5 112.5t-48 81.5t-45 74t-56.5 90zM86 1049l12 12l119 17t94 14.5t95.5 16.5t121.5 24l11 -17q-2 -115 -3 -227.5t-1 -226.5 q0 -121 2 -213.5t5 -168t6 -140t7 -126.5l-14 -14q-74 0 -124 1t-96.5 0t-93.5 -3t-114 -4l-15 14q4 139 8.5 276.5t4.5 278.5q0 90 -2.5 157.5t-5.5 123t-7 103.5t-10 102z" />
<glyph unicode="&#xed;" horiz-adv-x="641" d="M86 1049l12 12l119 17t94 14.5t95.5 16.5t121.5 24l11 -17q-2 -115 -3 -227.5t-1 -226.5q0 -121 2 -213.5t5 -168t6 -140t7 -126.5l-14 -14q-74 0 -124 1t-96.5 0t-93.5 -3t-114 -4l-15 14q4 139 8.5 276.5t4.5 278.5q0 90 -2.5 157.5t-5.5 123t-7 103.5t-10 102z M160 1262q14 31 27.5 59.5t26.5 66t29.5 92t39.5 138.5l10 10l373 8l8 -14l-230 -362l-12 -9l-264 -4z" />
<glyph unicode="&#xee;" horiz-adv-x="641" d="M-63 1262q39 72 64.5 123l46 92t35.5 75.5t32 71.5l12 10h438l10 -10q29 -68 48.5 -113t37 -82.5t36 -74.5t44.5 -88l-6 -9l-332 -12l-12 10l-74 220l-79 -213l-11 -9h-284zM86 1049l12 12l119 17t94 14.5t95.5 16.5t121.5 24l11 -17q-2 -115 -3 -227.5t-1 -226.5 q0 -121 2 -213.5t5 -168t6 -140t7 -126.5l-14 -14q-74 0 -124 1t-96.5 0t-93.5 -3t-114 -4l-15 14q4 139 8.5 276.5t4.5 278.5q0 90 -2.5 157.5t-5.5 123t-7 103.5t-10 102z" />
<glyph unicode="&#xef;" horiz-adv-x="641" d="M-98 1528l8 8q51 2 87 4t71.5 4t75.5 5t100 7l8 -8v-321l-12 -10l-320 -23l-10 10zM86 1049l12 12l119 17t94 14.5t95.5 16.5t121.5 24l11 -17q-2 -115 -3 -227.5t-1 -226.5q0 -121 2 -213.5t5 -168t6 -140t7 -126.5l-14 -14q-74 0 -124 1t-96.5 0t-93.5 -3t-114 -4 l-15 14q4 139 8.5 276.5t4.5 278.5q0 90 -2.5 157.5t-5.5 123t-7 103.5t-10 102zM383 1528l6 10l330 27l8 -6v-332l-8 -8l-316 -25l-12 8z" />
<glyph unicode="&#xf0;" horiz-adv-x="1236" d="M57 543q0 158 50.5 265t128 174t171 95.5t177.5 28.5q61 0 91 -11.5t48 -21.5q-10 25 -29.5 65t-56.5 99q-86 -25 -137 -40t-81 -23.5t-47.5 -14.5t-35.5 -12l-27 -8l-28 8q-12 27 -21.5 46t-18 36.5t-17.5 36t-23 43.5l12 22q63 14 102 24.5t69 18.5t57.5 15.5 t64.5 19.5q-35 41 -73 86t-73 72l13 20q35 4 71.5 10.5t71.5 12.5q37 8 73 15t73 15l30 -10q41 -39 68.5 -66.5t56.5 -62.5q92 27 133 40t66 24l24 -6q12 -27 21.5 -46.5t19 -37t19.5 -37t26 -45.5l-10 -25q-10 -2 -33.5 -8t-50 -12.5t-50.5 -12.5t-34 -8q72 -109 117 -205 t70.5 -184t35 -170t9.5 -160q0 -31 -2 -84t-15.5 -115.5t-41 -130t-79.5 -124.5q-29 -31 -68.5 -63t-94 -57.5t-124 -41t-155.5 -15.5q-113 0 -218.5 35t-182.5 117q-49 51 -78 110.5t-43.5 116t-17.5 105.5t-3 82zM481 545q0 -49 3 -104.5t16.5 -101.5t41 -76t76.5 -30 q45 0 74 25t44.5 70t21.5 110.5t4 149.5q-2 63 -8 116.5t-21.5 91.5t-42 58t-67.5 20q-86 0 -114 -86t-28 -243z" />
<glyph unicode="&#xf1;" horiz-adv-x="1280" d="M78 1053l12 12q68 8 114 15t89 14.5t92 16.5t121 26l20 -19l-4 -112q23 16 44.5 30.5t43.5 28.5q63 35 132 47t112 12q66 0 136.5 -24.5t117.5 -100.5q23 -35 35 -73.5t17 -88t6 -112.5t1 -145v-111q2 -92 3 -150.5t3.5 -105.5t4.5 -92t6 -107l-17 -14q-61 0 -105 1 t-87 0t-92 -3t-119 -4l-10 12q0 53 1 106.5t1 106.5v96q0 57 -1 115.5t-3 111t-5.5 92.5t-5.5 60q-2 12 -5 31.5t-14 37t-30.5 31t-54.5 13.5q-29 0 -56.5 -11.5t-56.5 -25.5q-2 -31 -2 -83t1 -111.5t3 -117t2 -96.5q2 -82 3 -131t2.5 -83.5t2.5 -64.5t3 -69l-11 -14 q-61 0 -107 1t-90 0t-94.5 -3t-119.5 -4l-13 14q2 98 3.5 193.5t1.5 193.5q0 131 -2.5 225.5t-6.5 168t-10 136t-12 128.5zM268 1278v246l6 16q25 20 70 45t125 25q27 0 46.5 -4t43.5 -11l90 -30q35 -12 73 -22.5t71 -10.5q14 0 34.5 3t55.5 21q10 6 44 31t58 43l8 -8 l6 -270l-8 -17q-35 -29 -82 -56.5t-121 -27.5q-35 0 -63.5 7.5t-58.5 17.5l-66 24q-35 12 -68.5 21.5t-68.5 9.5q-41 0 -81 -15.5t-106 -43.5z" />
<glyph unicode="&#xf2;" horiz-adv-x="1236" d="M57 539q0 111 23.5 219t95.5 194q51 59 113.5 93t125 50.5t117 20.5t89.5 4q117 0 226 -30.5t191 -110.5q27 -27 52.5 -62.5t45 -87t32 -120t12.5 -160.5q0 -29 -3 -73t-12.5 -96t-27 -105.5t-47.5 -98.5q-80 -113 -204 -157t-263 -44q-53 0 -129 9.5t-142 33.5 q-102 37 -160.5 101.5t-88 139.5t-38 149.5t-8.5 130.5zM274 1622l9 12q61 0 103 -1t81 0t80 2t96 3l12 -10q16 -59 28.5 -100t25 -78t30 -79t41.5 -101l-10 -15h-264l-17 9q-39 68 -65.5 112.5t-48 81.5t-45 74t-56.5 90zM481 528q0 -49 3 -94t14 -88q10 -43 28.5 -67.5 t38 -35t34.5 -12.5t19 -2q35 0 61 20.5t42 55.5q12 25 19.5 63t10.5 77.5t4 72.5t1 49q0 141 -29 221t-104 80q-47 0 -76 -27.5t-43.5 -73.5t-18.5 -107.5t-4 -131.5z" />
<glyph unicode="&#xf3;" horiz-adv-x="1236" d="M57 539q0 111 23.5 219t95.5 194q51 59 113.5 93t125 50.5t117 20.5t89.5 4q117 0 226 -30.5t191 -110.5q27 -27 52.5 -62.5t45 -87t32 -120t12.5 -160.5q0 -29 -3 -73t-12.5 -96t-27 -105.5t-47.5 -98.5q-80 -113 -204 -157t-263 -44q-53 0 -129 9.5t-142 33.5 q-102 37 -160.5 101.5t-88 139.5t-38 149.5t-8.5 130.5zM457 1262q14 31 27.5 59.5t26.5 66t29.5 92t39.5 138.5l10 10l373 8l8 -14l-230 -362l-12 -9l-264 -4zM481 528q0 -49 3 -94t14 -88q10 -43 28.5 -67.5t38 -35t34.5 -12.5t19 -2q35 0 61 20.5t42 55.5q12 25 19.5 63 t10.5 77.5t4 72.5t1 49q0 141 -29 221t-104 80q-47 0 -76 -27.5t-43.5 -73.5t-18.5 -107.5t-4 -131.5z" />
<glyph unicode="&#xf4;" horiz-adv-x="1236" d="M57 539q0 111 23.5 219t95.5 194q51 59 113.5 93t125 50.5t117 20.5t89.5 4q117 0 226 -30.5t191 -110.5q27 -27 52.5 -62.5t45 -87t32 -120t12.5 -160.5q0 -29 -3 -73t-12.5 -96t-27 -105.5t-47.5 -98.5q-80 -113 -204 -157t-263 -44q-53 0 -129 9.5t-142 33.5 q-102 37 -160.5 101.5t-88 139.5t-38 149.5t-8.5 130.5zM233 1262q39 72 65 123t46.5 92t35.5 75.5t32 71.5l12 10h438l10 -10q29 -68 48.5 -113t37 -82.5t36 -74.5t44.5 -88l-6 -9l-332 -12l-12 10l-74 220l-79 -213l-11 -9h-284zM481 528q0 -49 3 -94t14 -88 q10 -43 28.5 -67.5t38 -35t34.5 -12.5t19 -2q35 0 61 20.5t42 55.5q12 25 19.5 63t10.5 77.5t4 72.5t1 49q0 141 -29 221t-104 80q-47 0 -76 -27.5t-43.5 -73.5t-18.5 -107.5t-4 -131.5z" />
<glyph unicode="&#xf5;" horiz-adv-x="1236" d="M57 539q0 111 23.5 219t95.5 194q51 59 113.5 93t125 50.5t117 20.5t89.5 4q117 0 226 -30.5t191 -110.5q27 -27 52.5 -62.5t45 -87t32 -120t12.5 -160.5q0 -29 -3 -73t-12.5 -96t-27 -105.5t-47.5 -98.5q-80 -113 -204 -157t-263 -44q-53 0 -129 9.5t-142 33.5 q-102 37 -160.5 101.5t-88 139.5t-38 149.5t-8.5 130.5zM246 1278v246l6 16q25 20 70 45t124 25q27 0 46.5 -4t44.5 -11l90 -30q35 -12 72.5 -22.5t70.5 -10.5q14 0 34.5 3t55.5 21q10 6 44 31t59 43l8 -8l6 -270l-8 -17q-35 -29 -82 -56.5t-121 -27.5q-35 0 -63.5 7.5 t-59.5 17.5l-65 24q-35 12 -69 21.5t-69 9.5q-41 0 -81 -15.5t-105 -43.5zM481 528q0 -49 3 -94t14 -88q10 -43 28.5 -67.5t38 -35t34.5 -12.5t19 -2q35 0 61 20.5t42 55.5q12 25 19.5 63t10.5 77.5t4 72.5t1 49q0 141 -29 221t-104 80q-47 0 -76 -27.5t-43.5 -73.5 t-18.5 -107.5t-4 -131.5z" />
<glyph unicode="&#xf6;" horiz-adv-x="1236" d="M57 539q0 111 23.5 219t95.5 194q51 59 113.5 93t125 50.5t117 20.5t89.5 4q117 0 226 -30.5t191 -110.5q27 -27 52.5 -62.5t45 -87t32 -120t12.5 -160.5q0 -29 -3 -73t-12.5 -96t-27 -105.5t-47.5 -98.5q-80 -113 -204 -157t-263 -44q-53 0 -129 9.5t-142 33.5 q-102 37 -160.5 101.5t-88 139.5t-38 149.5t-8.5 130.5zM207 1528l8 8q51 2 87 4l72 4t75.5 5t99.5 7l8 -8v-321l-12 -10l-320 -23l-10 10zM481 528q0 -49 3 -94t14 -88q10 -43 28.5 -67.5t38 -35t34.5 -12.5t19 -2q35 0 61 20.5t42 55.5q12 25 19.5 63t10.5 77.5t4 72.5 t1 49q0 141 -29 221t-104 80q-47 0 -76 -27.5t-43.5 -73.5t-18.5 -107.5t-4 -131.5zM688 1528l6 10l330 27l8 -6v-332l-8 -8l-315 -25l-13 8z" />
<glyph unicode="&#xf7;" horiz-adv-x="1366" d="M0 465v260h1366v-260h-1366zM516 225q0 72 48 120t116 48q74 0 121 -49t47 -117q0 -66 -45 -115t-117 -49q-78 0 -124 48.5t-46 113.5zM516 958q0 72 48 120t116 48q74 0 121 -48.5t47 -116.5q0 -66 -45 -115t-117 -49q-78 0 -124 48t-46 113z" />
<glyph unicode="&#xf8;" horiz-adv-x="1236" d="M-4 70v14l135 117q-10 16 -23.5 41.5t-25.5 64.5t-20.5 93.5t-8.5 131.5q0 25 2 79.5t17.5 119t46.5 133t90 121.5q45 43 99 68.5t109.5 41t108 20.5t95.5 5q78 0 138 -11t106 -29.5t81 -40t64 -42.5l131 123l20 -2q25 -29 37 -42t37 -38l2 -16l-141 -129 q12 -23 26.5 -52.5t26.5 -73.5t21.5 -103.5t9.5 -137.5q0 -186 -54.5 -295.5t-137.5 -166t-183 -73t-193 -16.5q-98 0 -162.5 11.5t-108.5 29t-72.5 39t-51.5 41.5l-125 -116l-16 -3zM469 506l279 254q-12 43 -39 83t-91 40q-55 0 -85.5 -36t-44 -91.5t-16.5 -122t-3 -127.5 zM489 338q16 -47 43 -84t89 -37q55 0 84.5 39t44 96.5t15.5 122t1 117.5z" />
<glyph unicode="&#xf9;" horiz-adv-x="1280" d="M102 1079l15 13l391 18l16 -18q0 -55 1 -109.5t1 -110.5q0 -18 -1 -64t-1 -99.5t-1 -101.5t-1 -68q0 -49 2 -94.5t12.5 -81t34 -56t66.5 -20.5q33 0 62.5 12t58.5 29l-13 749l13 15q68 2 112.5 3t86.5 3t87.5 5t110.5 7l16 -20q-2 -164 -3 -327t-1 -327v-137t1 -100 t3.5 -87t4.5 -98l-15 -14h-102t-83 -1t-86 -2t-114 -3l-14 14l2 94q-18 -14 -37.5 -28.5t-40.5 -24.5q-59 -35 -128 -55.5t-128 -20.5q-88 0 -151.5 37t-96.5 78q-29 35 -43 75t-21 90t-7 112.5v144.5v88q0 82 1 139.5t0 108.5t-3.5 104.5t-6.5 128.5zM297 1622l8 12 q61 0 103.5 -1t81 0t79.5 2t97 3l12 -10q16 -59 28.5 -100t24.5 -78t29.5 -79t42.5 -101l-10 -15h-265l-16 9q-39 68 -65.5 112.5t-48 81.5t-45 74t-56.5 90z" />
<glyph unicode="&#xfa;" horiz-adv-x="1280" d="M102 1079l15 13l391 18l16 -18q0 -55 1 -109.5t1 -110.5q0 -18 -1 -64t-1 -99.5t-1 -101.5t-1 -68q0 -49 2 -94.5t12.5 -81t34 -56t66.5 -20.5q33 0 62.5 12t58.5 29l-13 749l13 15q68 2 112.5 3t86.5 3t87.5 5t110.5 7l16 -20q-2 -164 -3 -327t-1 -327v-137t1 -100 t3.5 -87t4.5 -98l-15 -14h-102t-83 -1t-86 -2t-114 -3l-14 14l2 94q-18 -14 -37.5 -28.5t-40.5 -24.5q-59 -35 -128 -55.5t-128 -20.5q-88 0 -151.5 37t-96.5 78q-29 35 -43 75t-21 90t-7 112.5v144.5v88q0 82 1 139.5t0 108.5t-3.5 104.5t-6.5 128.5zM479 1262 q14 31 27.5 59.5t27 66t30 92t38.5 138.5l10 10l373 8l8 -14l-229 -362l-12 -9l-265 -4z" />
<glyph unicode="&#xfb;" horiz-adv-x="1280" d="M102 1079l15 13l391 18l16 -18q0 -55 1 -109.5t1 -110.5q0 -18 -1 -64t-1 -99.5t-1 -101.5t-1 -68q0 -49 2 -94.5t12.5 -81t34 -56t66.5 -20.5q33 0 62.5 12t58.5 29l-13 749l13 15q68 2 112.5 3t86.5 3t87.5 5t110.5 7l16 -20q-2 -164 -3 -327t-1 -327v-137t1 -100 t3.5 -87t4.5 -98l-15 -14h-102t-83 -1t-86 -2t-114 -3l-14 14l2 94q-18 -14 -37.5 -28.5t-40.5 -24.5q-59 -35 -128 -55.5t-128 -20.5q-88 0 -151.5 37t-96.5 78q-29 35 -43 75t-21 90t-7 112.5v144.5v88q0 82 1 139.5t0 108.5t-3.5 104.5t-6.5 128.5zM256 1262 q39 72 64.5 123l46 92t36 75.5t31.5 71.5l12 10h439l10 -10q29 -68 48.5 -113t36.5 -82.5t35.5 -74.5t45.5 -88l-6 -9l-332 -12l-12 10l-74 220l-80 -213l-10 -9h-285z" />
<glyph unicode="&#xfc;" horiz-adv-x="1280" d="M102 1079l15 13l391 18l16 -18q0 -55 1 -109.5t1 -110.5q0 -18 -1 -64t-1 -99.5t-1 -101.5t-1 -68q0 -49 2 -94.5t12.5 -81t34 -56t66.5 -20.5q33 0 62.5 12t58.5 29l-13 749l13 15q68 2 112.5 3t86.5 3t87.5 5t110.5 7l16 -20q-2 -164 -3 -327t-1 -327v-137t1 -100 t3.5 -87t4.5 -98l-15 -14h-102t-83 -1t-86 -2t-114 -3l-14 14l2 94q-18 -14 -37.5 -28.5t-40.5 -24.5q-59 -35 -128 -55.5t-128 -20.5q-88 0 -151.5 37t-96.5 78q-29 35 -43 75t-21 90t-7 112.5v144.5v88q0 82 1 139.5t0 108.5t-3.5 104.5t-6.5 128.5zM229 1528l9 8 q51 2 86.5 4t71.5 4t76 5t99 7l9 -8v-321l-13 -10l-319 -23l-10 10zM711 1528l6 10l330 27l8 -6v-332l-8 -8l-316 -25l-12 8z" />
<glyph unicode="&#xfd;" horiz-adv-x="1110" d="M-20 1077l8 15q76 0 126 1t96 3t95 5t121 9l16 -12q25 -102 40.5 -171t30.5 -131.5t34.5 -132t48.5 -174.5q33 111 53.5 183.5t36.5 134t32.5 125t39.5 153.5l12 13l328 6l12 -14l-246 -697l-104 -311q-35 -106 -56.5 -179t-39 -134.5t-33 -123t-35.5 -145.5l-16 -12h-91 t-76 -1t-85 -2t-117 -3l-10 16q31 70 51 119t38.5 96t39 101.5t51.5 134.5q-29 88 -51.5 156.5t-42 127t-38 110.5t-38.5 112q-25 72 -51.5 142.5t-50.5 141.5q-27 74 -42.5 118t-27.5 76t-25.5 63.5t-33.5 80.5zM393 1262q14 31 27.5 59.5t27 66t30 92t38.5 138.5l10 10 l373 8l8 -14l-229 -362l-12 -9l-265 -4z" />
<glyph unicode="&#xfe;" horiz-adv-x="1280" d="M88 1548l14 13q74 10 122 17t90 15.5t87 16.5t113 22l10 -14q0 -25 -1 -48.5t-1 -47.5q0 -18 -1 -70.5t-2 -112t-2 -114t-1 -74.5l-2 -125q35 20 65.5 37.5t63.5 30t69 19.5t83 7q111 0 193.5 -44t137 -117.5t82 -167t27.5 -191.5t-20.5 -174t-51 -132t-63.5 -93t-58 -58 q-63 -53 -134.5 -82.5t-141.5 -43t-131.5 -17.5t-99.5 -4q4 -174 8 -306t6 -190l-10 -12q-23 2 -43.5 2h-40.5q-23 2 -42.5 2h-41.5q-61 0 -117.5 -3t-134.5 -7l-15 12q2 76 3.5 129t1.5 118.5t-1.5 163t-1.5 261.5v817q0 119 -1 203t-3 147.5t-6 112.5t-8 102zM530 520.5 q0 -61.5 1.5 -123t3.5 -135.5q61 0 113 15.5t90 52.5t59.5 97t21.5 151q0 94 -24.5 145t-56 75.5t-61.5 28.5t-38 4q-33 0 -59.5 -9t-49.5 -19v-153.5v-129z" />
<glyph unicode="&#xff;" horiz-adv-x="1110" d="M-20 1077l8 15q76 0 126 1t96 3t95 5t121 9l16 -12q25 -102 40.5 -171t30.5 -131.5t34.5 -132t48.5 -174.5q33 111 53.5 183.5t36.5 134t32.5 125t39.5 153.5l12 13l328 6l12 -14l-246 -697l-104 -311q-35 -106 -56.5 -179t-39 -134.5t-33 -123t-35.5 -145.5l-16 -12h-91 t-76 -1t-85 -2t-117 -3l-10 16q31 70 51 119t38.5 96t39 101.5t51.5 134.5q-29 88 -51.5 156.5t-42 127t-38 110.5t-38.5 112q-25 72 -51.5 142.5t-50.5 141.5q-27 74 -42.5 118t-27.5 76t-25.5 63.5t-33.5 80.5zM135 1528l8 8q51 2 87 4l72 4t76 5t99 7l8 -8v-321l-12 -10 l-319 -23l-11 10zM616 1528l7 10l329 27l9 -6v-332l-9 -8l-315 -25l-12 8z" />
<glyph unicode="&#x152;" horiz-adv-x="1921" d="M66 698q0 178 46 334t154 254q31 31 73 60.5t109.5 53t170 39t255.5 15.5h99h844l12 -12l-14 -285l-13 -10h-469v-260h436l11 -10l-19 -267l-16 -12h-410v-281q43 -2 97.5 -3t105.5 -1q78 0 152.5 2t150.5 7l12 -13l-18 -295l-12 -14q-78 0 -155 1t-155 1 q-123 0 -243.5 -2t-265.5 -6h-107q-109 0 -218.5 5t-209.5 38t-185 101.5t-147 197.5q-43 90 -57 181t-14 181zM526 719q0 -117 20.5 -196t58.5 -126t93.5 -66.5t122.5 -19.5q45 0 88 6v832q-31 0 -64.5 -1t-68.5 -7t-68.5 -19.5t-64.5 -40.5q-47 -41 -82 -129t-35 -233z " />
<glyph unicode="&#x153;" horiz-adv-x="1878" d="M57 545q0 59 7.5 122.5t27 124t53 115t84.5 97.5q43 35 94.5 57t103.5 35.5t102.5 18.5t88.5 5q70 0 125.5 -11t98.5 -27.5t76.5 -39t58.5 -43.5q23 18 55.5 39t77.5 39.5t100.5 30.5t122.5 12q74 0 146.5 -15t134.5 -56q78 -49 122 -120t64.5 -150t25.5 -157.5t5 -146.5 l-14 -16l-643 -8q10 -51 26.5 -86t69.5 -64q41 -23 87 -33t99 -10q29 0 75 4t105 17q20 6 37 11t32 11t32.5 15.5t40.5 23.5l14 -10l-10 -262l-13 -19q-72 -31 -164 -52.5t-214 -21.5q-61 0 -109.5 6.5t-83.5 12.5t-59.5 14t-47 20.5t-45 28t-53.5 37.5q-23 -16 -53.5 -36.5 t-75.5 -39t-107.5 -31t-144.5 -12.5q-66 0 -132 10.5t-126.5 34t-114 62.5t-92.5 98q-29 43 -47 92.5t-27.5 98.5t-12.5 94t-3 80zM481 551q0 -160 28 -240t112 -80q35 0 61.5 15.5t43.5 53.5t25.5 103.5t8.5 165.5q0 16 -1 45t-4 62t-11.5 66.5t-20.5 62.5 q-6 12 -27.5 38.5t-74.5 26.5q-72 0 -106 -69.5t-34 -249.5zM1163 676l285 4q-2 35 -6 68.5t-27 64.5t-48.5 42t-53.5 11q-45 0 -80 -20q-49 -31 -58.5 -79t-11.5 -91z" />
<glyph unicode="&#x178;" horiz-adv-x="1366" d="M-12 1425l8 15q76 0 129 1t102 3t104.5 5t133.5 9l14 -8q20 -51 40 -92t45.5 -91t64.5 -121t98 -181q23 49 45.5 98t47 104.5t53 122t63.5 150.5l10 6l400 6l8 -10q-57 -98 -118.5 -207t-121 -217.5t-113 -208.5t-96.5 -182v-121v-161t1 -124t3 -104t4 -105l-16 -12h-119 t-94 -1t-96 -2t-125 -3l-10 12q2 66 5 120t4 110.5t2 122t1 155.5v107q-16 27 -54 92t-88.5 149t-104.5 177.5t-102 173t-83 138t-45 74.5zM260 1556q2 41 3 76t1 72q0 39 -1 76t-1 73l8 15l332 4l8 -12l-4 -295l-10 -13l-328 -6zM778 1548q2 35 2 70v70v74.5t-2 88.5l8 13 l322 10l10 -14l-4 -299l-10 -15l-316 -10z" />
<glyph unicode="&#x2c6;" horiz-adv-x="598" d="M-102 1262q39 72 64.5 123l46 92t35.5 75.5t32 71.5l12 10h438l11 -10q29 -68 48 -113t36.5 -82.5t36 -74.5t44.5 -88l-6 -9l-331 -12l-13 10l-73 220l-80 -213l-11 -9h-284z" />
<glyph unicode="&#x2dc;" horiz-adv-x="598" d="M-66 1278v246l7 16q25 20 69.5 45t124.5 25q27 0 46.5 -4t43.5 -11l90 -30q35 -12 73 -22.5t71 -10.5q14 0 34.5 3t55.5 21q10 6 44 31t58 43l8 -8l7 -270l-9 -17q-35 -29 -82 -56.5t-120 -27.5q-35 0 -64 7.5t-59 17.5l-66 24q-35 12 -68.5 21.5t-68.5 9.5 q-41 0 -81 -15.5t-105 -43.5z" />
<glyph unicode="&#x2000;" horiz-adv-x="1003" />
<glyph unicode="&#x2001;" horiz-adv-x="2007" />
<glyph unicode="&#x2002;" horiz-adv-x="1003" />
<glyph unicode="&#x2003;" horiz-adv-x="2007" />
<glyph unicode="&#x2004;" horiz-adv-x="669" />
<glyph unicode="&#x2005;" horiz-adv-x="501" />
<glyph unicode="&#x2006;" horiz-adv-x="334" />
<glyph unicode="&#x2007;" horiz-adv-x="334" />
<glyph unicode="&#x2008;" horiz-adv-x="250" />
<glyph unicode="&#x2009;" horiz-adv-x="401" />
<glyph unicode="&#x200a;" horiz-adv-x="111" />
<glyph unicode="&#x2010;" horiz-adv-x="811" d="M70 436l12 287l12 14h639l8 -10l-14 -287l-12 -14h-637z" />
<glyph unicode="&#x2011;" horiz-adv-x="811" d="M70 436l12 287l12 14h639l8 -10l-14 -287l-12 -14h-637z" />
<glyph unicode="&#x2012;" horiz-adv-x="811" d="M70 436l12 287l12 14h639l8 -10l-14 -287l-12 -14h-637z" />
<glyph unicode="&#x2013;" d="M70 444l20 285l14 16q129 -4 258.5 -7t258.5 -3q123 0 245.5 2t245.5 6l12 -14l-20 -295l-12 -14q-80 2 -145.5 5t-122 4t-109.5 2t-111 1h-122.5t-139.5 -1t-140.5 -1h-123.5z" />
<glyph unicode="&#x2014;" horiz-adv-x="1449" d="M70 444q4 51 7 85t5 64t3 59.5t5 76.5l14 14q193 -4 384.5 -7t383.5 -3q94 0 167 1t131.5 2t105.5 3t92 4l14 -14q-6 -74 -12 -147.5t-10 -147.5l-12 -16q-41 2 -87.5 5t-107.5 5t-142 3t-192 1q-186 0 -370.5 -1t-370.5 -3z" />
<glyph unicode="&#x2018;" horiz-adv-x="555" d="M6 1061q55 100 92 175t63.5 132t45 102.5t35.5 85.5l12 11q43 -2 72.5 -2h62.5h79t77 2l6 -13l-129 -487l-8 -10l-402 -8z" />
<glyph unicode="&#x2019;" horiz-adv-x="555" d="M4 1063q25 92 42 156.5t31.5 117t27 100.5t28.5 111l8 11l402 8l4 -13q-49 -90 -82 -154.5t-57.5 -118.5t-46 -106.5t-48.5 -115.5l-14 -10q-47 2 -75.5 3t-61.5 1q-39 0 -77 -1t-77 -3z" />
<glyph unicode="&#x201a;" horiz-adv-x="555" d="M4 -143q25 92 42 156.5t31.5 116.5t27 100.5t28.5 111.5l8 10l402 8l4 -12q-49 -90 -82 -154.5t-57.5 -119t-46 -106.5t-48.5 -115l-14 -11q-47 2 -75.5 3t-61.5 1q-39 0 -77 -1t-77 -3z" />
<glyph unicode="&#x201c;" horiz-adv-x="1067" d="M6 1061q51 94 86 162.5t60.5 124t46 104.5t43.5 104l12 11q41 -2 70.5 -2h64.5h79t77 2l6 -13q-14 -51 -31.5 -113.5t-35 -129t-34 -130t-28.5 -114.5l-8 -10l-402 -8zM518 1061q49 92 82 155.5t58.5 116.5t47 104.5t48.5 118.5l14 11q41 -2 71.5 -2h63.5h77t77 2l6 -13 l-129 -487l-10 -10l-400 -8z" />
<glyph unicode="&#x201d;" horiz-adv-x="1067" d="M4 1063q25 92 42 155.5t30.5 114.5t27 100.5t29.5 114.5l8 11l402 8l4 -13q-49 -90 -82 -155.5t-57.5 -119.5t-46 -105.5t-48.5 -114.5l-14 -10q-47 2 -75.5 3t-61.5 1q-39 0 -77 -1t-77 -3zM516 1063l129 485l8 11l402 8l4 -13q-53 -100 -87 -166.5t-58.5 -118.5 t-44 -99.5t-44.5 -110.5l-14 -10q-47 2 -75.5 3t-61.5 1q-39 0 -77 -1t-77 -3z" />
<glyph unicode="&#x201e;" horiz-adv-x="1067" d="M4 -143q16 66 34.5 130t35.5 130q12 47 20 75.5t14.5 51t11.5 44t13 54.5l8 10l402 10l4 -12q-47 -88 -78 -149.5t-55.5 -113.5t-47 -106.5t-53.5 -127.5l-14 -11q-35 2 -70.5 3t-70.5 1q-37 0 -74 -1t-76 -3zM516 -143l129 485l8 10l402 10l4 -12q-66 -123 -124 -245.5 t-110 -251.5l-14 -11q-45 2 -77 3t-68 1q-37 0 -73 -1t-73 -3z" />
<glyph unicode="&#x2022;" horiz-adv-x="681" d="M25 723q0 66 24.5 124t67.5 101t101 67.5t124 24.5t124 -24.5t101 -67.5t67.5 -101.5t24.5 -123.5q0 -66 -24.5 -124t-67.5 -101t-101 -67.5t-124 -24.5t-124 24.5t-101 67.5t-67.5 101t-24.5 124z" />
<glyph unicode="&#x2026;" horiz-adv-x="2048" d="M178 147q0 43 15.5 75t39 52.5t52 30.5t55.5 10q72 0 117 -45.5t47 -115.5q0 -29 -10.5 -58.5t-31 -53.5t-51 -39t-71.5 -15q-29 0 -57.5 11t-52 31.5t-38 50.5t-14.5 66zM860 152q0 66 47 113.5t121 47.5q61 0 110.5 -43.5t49.5 -115.5q0 -29 -10.5 -58.5t-31 -53.5 t-51 -39t-69.5 -15q-61 0 -113.5 43t-52.5 121zM1544 152q0 74 51.5 118.5t112.5 44.5q41 0 71.5 -15t50 -38.5t30 -52t10.5 -55.5q0 -72 -48 -119t-110 -47q-63 0 -115.5 43t-52.5 121z" />
<glyph unicode="&#x202f;" horiz-adv-x="401" />
<glyph unicode="&#x2039;" horiz-adv-x="555" d="M4 578v22q4 6 18.5 31.5t34 60.5t43 76t45 80t40 71.5t28.5 51.5l14 14q39 -2 70 -3t61.5 -2t67.5 0t92 1l12 -18q-10 -16 -33.5 -57.5t-53 -93.5t-60.5 -110.5t-53 -107.5q6 -14 21.5 -43t33.5 -65.5t39.5 -77.5t41 -78t35 -68t23.5 -45l-8 -24q-53 0 -91 -1.5 t-67.5 -1.5t-57.5 1.5t-60 1.5l-19 10q-8 14 -27.5 48t-43 76t-50 86t-48 80.5t-34.5 60.5z" />
<glyph unicode="&#x203a;" horiz-adv-x="555" d="M25 211q8 14 32.5 56t54 95.5t60.5 110.5t53 107q-6 12 -21.5 41.5t-33.5 66.5t-39.5 78t-41 78t-35 67.5t-23.5 44.5l8 25q49 0 83 1t61.5 1t58 -1t73.5 -1l17 -10q8 -16 27.5 -49t44 -75t50 -86t47 -81t35.5 -60l15 -24v-23q-6 -12 -35 -61t-62.5 -108.5t-65.5 -117 t-46 -83.5l-14 -15q-41 2 -71 3.5t-60.5 2.5t-67.5 0t-92 -1z" />
<glyph unicode="&#x205f;" horiz-adv-x="501" />
<glyph unicode="&#x20ac;" d="M-6 442q14 39 30.5 90.5t26.5 83.5l12 13h36t73 -2q-2 16 -2 32.5v32.5v26.5t2 24.5h-25q-29 0 -46 -1t-30.5 -1h-25.5h-31l-12 17q12 35 29.5 86t27.5 88l13 12h45.5t87.5 -2q37 123 108.5 212t158.5 147.5t181.5 86t177.5 27.5q152 0 248.5 -24.5t143.5 -51.5l8 -14 q-12 -35 -22.5 -63.5t-20.5 -59.5t-22.5 -67.5t-26.5 -87.5l-15 -9q-10 6 -26.5 18.5t-43 25t-66.5 21.5t-95 9q-78 0 -151.5 -41t-114.5 -133q102 2 191 2t134 2q27 2 49 2h41t33 2l12 -12q-12 -35 -28.5 -83t-30.5 -97l-12 -13q-20 0 -32.5 1t-24 1h-22.5h-30l-336 2 q-2 -12 -2 -25v-28q0 -18 1 -35.5t3 -33.5q86 0 155 1t120 3q27 2 49 2h40.5t33.5 2l12 -13q-12 -35 -28.5 -85t-28.5 -95l-13 -12q-20 0 -32.5 1t-23.5 1h-22.5h-29.5l-178 2q23 -47 55.5 -79t68 -50t73.5 -26.5t71 -8.5q109 0 182.5 28t106.5 54l16 -8l-14 -297l-10 -12 q-84 -29 -163 -45.5t-194 -16.5q-94 0 -188 29t-177 86t-147.5 143t-99.5 201h-68h-46h-30.5t-25.5 -1t-31 -1z" />
<glyph unicode="&#x2122;" horiz-adv-x="1409" d="M-2 1309v137h590v-137h-207v-543h-172v543h-211zM643 766v680h217l156 -492l145 492h219v-680h-168l9 362l10 138l-27 -111l-117 -389h-151l-121 393l-29 105l13 -136l12 -362h-168z" />
<glyph unicode="&#x25fc;" horiz-adv-x="1105" d="M0 0v1106h1106v-1106h-1106z" />
<glyph unicode="&#xfb01;" horiz-adv-x="1409" d="M2 834q2 45 4 76.5t3 57t3 51t4 60.5l17 19q20 -2 36.5 -3t31 -1h30.5h39q0 6 -1 25.5t-1 42v42v27.5q0 86 13.5 160.5t55.5 131t118.5 88t205.5 31.5q78 0 136.5 -6t93.5 -12l10 -12q-4 -39 -7 -66.5t-5.5 -55.5t-4.5 -61.5t-4 -82.5l-16 -11q-16 4 -32.5 8.5t-37.5 4.5 q-41 0 -63.5 -16.5t-33.5 -39t-14 -46t-5 -38.5q-2 -37 -2.5 -64.5t-0.5 -53.5q29 0 49.5 1t39 2t39 2t49.5 3l10 -15q-2 -35 -4 -57t-4 -48t-4 -58.5t-7 -88.5l-16 -12q-37 2 -75 2h-74v-250.5t1 -194.5t5 -174t10 -188l-14 -14q-74 0 -119 1t-85 0t-86 -2t-118 -3l-14 10 q2 37 3 70t2 73.5t2 95t2 133.5t1 187.5t2 259.5h-47.5t-33.5 -1t-32.5 -2t-42.5 -1zM854 1049l12 12q78 10 130.5 18t96.5 15.5t91 16.5t112 22l11 -17v-98q-2 -84 -3 -166t-1 -168q0 -139 2 -244.5t5 -185.5t6 -138.5t7 -101.5l-14 -14q-70 0 -119 1t-93 0t-94.5 -3 t-121.5 -4l-15 14q4 125 8.5 258t4.5 271q0 104 -2.5 183t-6.5 139.5t-8 105.5t-8 84zM864 1540l13 16q66 8 113.5 13.5t91.5 11.5t90.5 12t109.5 17l12 -15q0 -55 -1 -91t-1 -68.5v-70.5v-97l-12 -13q-66 -8 -111 -14t-87 -12t-86 -13.5t-107 -19.5l-19 12v87t-1 70t-2 74 t-3 101z" />
<glyph unicode="&#xfb02;" horiz-adv-x="1409" d="M2 834q2 45 4 76.5t3 57t3 51t4 60.5l17 19q20 -2 36.5 -3t31 -1h30.5h39q0 6 -1 25.5t-1 42v42v27.5q0 86 13.5 160.5t55.5 131t118.5 88t205.5 31.5q78 0 136.5 -6t93.5 -12l10 -12q-4 -39 -7 -66.5t-5.5 -55.5t-4.5 -61.5t-4 -82.5l-16 -11q-16 4 -32.5 8.5t-37.5 4.5 q-41 0 -63.5 -16.5t-33.5 -39t-14 -46t-5 -38.5q-2 -37 -2.5 -64.5t-0.5 -53.5q29 0 49.5 1t39 2t39 2t49.5 3l10 -15q-2 -35 -4 -57t-4 -48t-4 -58.5t-7 -88.5l-16 -12q-37 2 -75 2h-74v-250.5t1 -194.5t5 -174t10 -188l-14 -14q-74 0 -119 1t-85 0t-86 -2t-118 -3l-14 10 q2 37 3 70t2 73.5t2 95t2 133.5t1 187.5t2 259.5h-47.5t-33.5 -1t-32.5 -2t-42.5 -1zM850 1548l12 13q72 12 122 20t94 16.5t92.5 16.5t115.5 20l17 -18q-2 -111 -3.5 -205t-1.5 -207v-553q0 -70 1 -132t2.5 -133t4.5 -160t9 -212l-15 -14q-72 0 -121 1t-94 0t-93 -3 t-115 -4l-17 14q2 76 5 138.5t4 139t2 179t1 258.5v201.5t-2 201.5q0 90 -2 151.5t-5 108t-6 84t-7 78.5z" />
</font>
</defs>
</svg>
